<?xml version="1.0" encoding="utf-8"?>
<!-- Generator: Adobe Illustrator 16.0.3, SVG Export Plug-In . SVG Version: 6.00 Build 0)  -->
<!DOCTYPE svg PUBLIC "-//W3C//DTD SVG 1.1//EN" "http://www.w3.org/Graphics/SVG/1.1/DTD/svg11.dtd">
<svg version="1.1" id="Capa_1" xmlns="http://www.w3.org/2000/svg" xmlns:xlink="http://www.w3.org/1999/xlink" x="0px" y="0px"
	 width="64px" height="57.875px" viewBox="0 0 64 57.875" enable-background="new 0 0 64 57.875" xml:space="preserve">
<g>
	<g>
		<defs>
			<polygon id="SVGID_1_" points="-4.061,64.338 68.061,64.338 68.061,-6.463 -4.061,-6.463 -4.061,64.338 			"/>
		</defs>
		<clipPath id="SVGID_2_">
			<use xlink:href="#SVGID_1_"  overflow="visible"/>
		</clipPath>
		<g clip-path="url(#SVGID_2_)">
			<defs>
				<polygon id="SVGID_3_" points="-4.061,-6.463 68.061,-6.463 68.061,64.338 -4.061,64.338 -4.061,-6.463 				"/>
			</defs>
			<clipPath id="SVGID_4_">
				<use xlink:href="#SVGID_3_"  overflow="visible"/>
			</clipPath>
		</g>
	</g>
</g>
<g>
	<g>
		<defs>
			<polygon id="SVGID_5_" points="3.312,57.333 60.688,57.333 60.688,0.542 3.312,0.542 3.312,57.333 			"/>
		</defs>
		<clipPath id="SVGID_6_">
			<use xlink:href="#SVGID_5_"  overflow="visible"/>
		</clipPath>
		<g clip-path="url(#SVGID_6_)">
			<defs>
				<polygon id="SVGID_7_" points="3.312,57.333 60.688,57.333 60.688,0.542 3.312,0.542 3.312,57.333 				"/>
			</defs>
			<defs>
				<polygon id="SVGID_8_" points="3.312,0.542 60.688,0.542 60.688,57.333 3.312,57.333 3.312,0.542 				"/>
			</defs>
			<clipPath id="SVGID_9_">
				<use xlink:href="#SVGID_7_"  overflow="visible"/>
			</clipPath>
			<clipPath id="SVGID_10_" clip-path="url(#SVGID_9_)">
				<use xlink:href="#SVGID_8_"  overflow="visible"/>
			</clipPath>
			<g clip-path="url(#SVGID_10_)">
				<defs>
					<polygon id="SVGID_11_" points="3.312,57.333 60.688,57.333 60.688,0.542 3.312,0.542 3.312,57.333 					"/>
				</defs>
				<clipPath id="SVGID_12_">
					<use xlink:href="#SVGID_11_"  overflow="visible"/>
				</clipPath>
				<g clip-path="url(#SVGID_12_)">
					<defs>
						<polygon id="SVGID_13_" points="3.681,57.124 60.492,57.124 60.492,0.913 3.681,0.913 3.681,57.124 						"/>
					</defs>
					<clipPath id="SVGID_14_">
						<use xlink:href="#SVGID_13_"  overflow="visible"/>
					</clipPath>
					<path clip-path="url(#SVGID_14_)" fill="#2AA2C8" d="M36.1,57.124H25.886c-0.834,0-1.826,0.157-2.346-0.573
						c-1.72-2.55-4.169-1.976-6.568-1.663c-1.717,0.311-3.491,0.261-5.158-0.158c-2.295-0.676-2.764-2.028-2.971-4.319
						c-0.418-3.901,0.05-8.224-3.754-11.087c-1.511-1.093-1.669-2.81-0.678-4.527c0.729-1.249,1.721-2.395,2.865-3.225
						c1.462-1.041,2.19-2.813,1.878-4.582c-1.042-8.122,2.606-14.106,8.965-18.583c4.378-3.069,9.642-4.528,14.957-4.163
						c2.605,0.156,2.658,0.363,1.305,2.447c-3.596,5.413-3.753,10.927-0.105,16.34c0.68,0.834,0.627,2.032-0.207,2.76
						c-1.826,2.188-3.546,4.374-5.319,6.506c-0.988,1.199-1.145,2.446,0.158,3.435c1.355,1.044,2.606,0.679,3.649-0.571
						c1.666-2.029,3.335-4.061,4.951-6.142c0.678-1.04,2.033-1.354,3.074-0.728c4.744,1.925,10.164,1.196,14.178-1.979
						c0.469-0.312,0.834-1.197,1.512-0.729c0.572,0.365,0.313,1.147,0.363,1.769c0.262,5.673-1.719,10.618-4.848,15.201
						c-0.57,0.884-1.146,1.717-1.824,2.495c-1.979,1.981-2.553,4.947-1.459,7.547c0.053,0.211,0.105,0.419,0.158,0.629
						c0.729,3.587,0.469,3.952-3.232,3.952C42.355,57.124,39.229,57.124,36.1,57.124"/>
					<path clip-path="url(#SVGID_14_)" fill="#2AA2C8" d="M40.791,5.855c5.891,2.5,10.686,6.975,13.5,12.7
						c0.834,1.303,0.521,3.071-0.73,4.01c-4.43,4.372-11.676,4.372-15.635-0.156c-4.016-4.165-3.857-10.775,0.311-14.784
						c0.418-0.363,0.834-0.729,1.305-1.041c0.313-0.259,0.676-0.469,0.99-0.729l0.104,0.053L40.791,5.855L40.791,5.855L40.791,5.855
						z"/>
					<path clip-path="url(#SVGID_14_)" fill="#2AA2C8" d="M40.791,5.855h-0.104h-0.105l-3.91-1.353
						c5.004-4.996,14.127-4.737,19.494,0.469c5.473,5.154,5.787,13.794,0.627,19.259c-0.418-1.719-1.564-3.072-0.834-4.894
						c1.928-4.893,0.938-9.056-2.713-12.284C49.756,4.137,44.805,3.668,40.791,5.855"/>
				</g>
			</g>
		</g>
	</g>
</g>
</svg>
