<?xml version="1.0" encoding="utf-8"?>
<!-- Generator: Adobe Illustrator 16.0.3, SVG Export Plug-In . SVG Version: 6.00 Build 0)  -->
<!DOCTYPE svg PUBLIC "-//W3C//DTD SVG 1.1//EN" "http://www.w3.org/Graphics/SVG/1.1/DTD/svg11.dtd">
<svg version="1.1" id="Capa_1" xmlns="http://www.w3.org/2000/svg" xmlns:xlink="http://www.w3.org/1999/xlink" x="0px" y="0px"
	 width="64px" height="57.875px" viewBox="0 0 64 57.875" enable-background="new 0 0 64 57.875" xml:space="preserve">
<g>
	<g>
		<defs>
			<polygon id="SVGID_1_" points="2.293,57.875 64,57.875 64,0.353 2.293,0.353 2.293,57.875 			"/>
		</defs>
		<clipPath id="SVGID_2_">
			<use xlink:href="#SVGID_1_"  overflow="visible"/>
		</clipPath>
		<g clip-path="url(#SVGID_2_)">
			<defs>
				<polygon id="SVGID_3_" points="2.293,57.875 64,57.875 64,0.353 2.293,0.353 2.293,57.875 				"/>
			</defs>
			<defs>
				<polygon id="SVGID_4_" points="2.293,0.353 64,0.353 64,57.875 2.293,57.875 2.293,0.353 				"/>
			</defs>
			<clipPath id="SVGID_5_">
				<use xlink:href="#SVGID_3_"  overflow="visible"/>
			</clipPath>
			<clipPath id="SVGID_6_" clip-path="url(#SVGID_5_)">
				<use xlink:href="#SVGID_4_"  overflow="visible"/>
			</clipPath>
			<g clip-path="url(#SVGID_6_)">
				<defs>
					<polygon id="SVGID_7_" points="2.293,57.875 64,57.875 64,0.353 2.293,0.353 2.293,57.875 					"/>
				</defs>
				<clipPath id="SVGID_8_">
					<use xlink:href="#SVGID_7_"  overflow="visible"/>
				</clipPath>
				<g clip-path="url(#SVGID_8_)">
					<defs>
						<polygon id="SVGID_9_" points="2.624,57.71 63.845,57.71 63.845,0.685 2.624,0.685 2.624,57.71 						"/>
					</defs>
					<clipPath id="SVGID_10_">
						<use xlink:href="#SVGID_9_"  overflow="visible"/>
					</clipPath>
					<path clip-path="url(#SVGID_10_)" fill="#2AA2C8" d="M44.094,22.97c4.399,0.328,5.477,1.592,5.477,5.993
						c0,1.873,0.188,3.746-1.264,5.243c-0.188,0.188-0.141,0.61-0.094,0.891c0.422,1.217,0.983,2.388,1.265,3.65
						c0.28,1.266,0.327,2.529,0.514,3.934c3.418,1.124,6.929,2.2,10.345,3.371c3.231,1.077,4.446,4.589,2.435,7.163
						c-1.17,1.498-2.715,2.247-4.588,1.687c-3.275-0.938-6.553-2.014-9.782-3.091c-1.03-0.327-1.639-0.234-2.435,0.608
						c-6.271,6.93-16.617,6.976-22.983,0.188c-0.42-0.422-0.889-0.89-1.45-1.077c-7.912-2.481-12.17-8.005-13.48-16.058
						c-4.12-0.235-5.384-1.593-5.384-5.854c0-0.515,0-1.03,0-1.498c0.047-3.418,1.639-4.963,5.571-5.056
						c0-1.826,0.188-3.652-0.047-5.478C7.395,11.218,9.924,6.583,15.119,3.119c0.983-0.655,1.872-1.451,3.183-2.434
						c-0.28,1.217-0.467,1.966-0.702,2.902c4.354-0.796,8.66-1.545,13.248-2.387c-1.03,1.404-1.827,2.527-2.95,4.026
						c1.593,0,2.762-0.047,3.979,0c5.57,0.281,12.64,4.167,12.218,12.735C44,19.646,44.094,21.331,44.094,22.97L44.094,22.97z
						 M21.345,42.259c0,7.21,5.804,13.017,13.06,13.017c7.35,0,13.2-5.807,13.2-13.11c0-7.21-5.851-13.015-13.105-13.062
						C27.243,29.104,21.345,35.003,21.345,42.259L21.345,42.259z M48.354,49.376c3.511,1.17,6.975,2.341,10.439,3.37
						c1.122,0.328,2.104-0.374,2.479-1.543c0.374-1.124,0.047-2.249-1.123-2.67c-3.417-1.217-6.881-2.294-10.345-3.465
						C49.29,46.613,48.867,47.924,48.354,49.376L48.354,49.376z"/>
					<path clip-path="url(#SVGID_10_)" fill="#2AA2C8" d="M42.643,34.159c-2.199-2.199-4.914-3.277-7.255-3.323
						c-5.664,0-10.064,3.09-11.609,7.679c-1.591,4.635-0.141,9.737,3.745,12.688c0.562,0.42,1.452,0.7,2.155,0.607
						c6.739-1.03,13.948-7.725,13.808-15.591C43.438,35.472,43.11,34.628,42.643,34.159L42.643,34.159z M33.656,47.972
						c-1.359-0.048-2.389-1.218-2.341-2.528c0.048-1.264,1.123-2.294,2.387-2.294c1.358,0,2.388,1.075,2.388,2.482
						C36.09,46.988,35.013,48.019,33.656,47.972L33.656,47.972z"/>
				</g>
			</g>
		</g>
	</g>
</g>
</svg>
