<?xml version="1.0" encoding="utf-8"?>
<!-- Generator: Adobe Illustrator 16.0.3, SVG Export Plug-In . SVG Version: 6.00 Build 0)  -->
<!DOCTYPE svg PUBLIC "-//W3C//DTD SVG 1.1//EN" "http://www.w3.org/Graphics/SVG/1.1/DTD/svg11.dtd">
<svg version="1.1" id="Capa_1" xmlns="http://www.w3.org/2000/svg" xmlns:xlink="http://www.w3.org/1999/xlink" x="0px" y="0px"
	 width="64px" height="57.875px" viewBox="0 0 64 57.875" enable-background="new 0 0 64 57.875" xml:space="preserve">
<g>
	<g>
		<defs>
			<polygon id="SVGID_1_" points="0.98,47.777 63.02,47.777 63.02,10.098 0.98,10.098 0.98,47.777 			"/>
		</defs>
		<clipPath id="SVGID_2_">
			<use xlink:href="#SVGID_1_"  overflow="visible"/>
		</clipPath>
		<g clip-path="url(#SVGID_2_)">
			<defs>
				<polygon id="SVGID_3_" points="0.98,47.777 63.02,47.777 63.02,10.098 0.98,10.098 0.98,47.777 				"/>
			</defs>
			<defs>
				<polygon id="SVGID_4_" points="0.98,10.098 63.02,10.098 63.02,47.777 0.98,47.777 0.98,10.098 				"/>
			</defs>
			<clipPath id="SVGID_5_">
				<use xlink:href="#SVGID_3_"  overflow="visible"/>
			</clipPath>
			<clipPath id="SVGID_6_" clip-path="url(#SVGID_5_)">
				<use xlink:href="#SVGID_4_"  overflow="visible"/>
			</clipPath>
			<g clip-path="url(#SVGID_6_)">
				<defs>
					<polygon id="SVGID_7_" points="0.98,47.777 63.02,47.777 63.02,10.098 0.98,10.098 0.98,47.777 					"/>
				</defs>
				<clipPath id="SVGID_8_">
					<use xlink:href="#SVGID_7_"  overflow="visible"/>
				</clipPath>
				<g clip-path="url(#SVGID_8_)">
					<defs>
						<polygon id="SVGID_9_" points="1.285,47.63 62.858,47.63 62.858,10.401 1.285,10.401 1.285,47.63 						"/>
					</defs>
					<clipPath id="SVGID_10_">
						<use xlink:href="#SVGID_9_"  overflow="visible"/>
					</clipPath>
					<path clip-path="url(#SVGID_10_)" fill="#2AA2C8" d="M62.858,19.798c-0.687,2.176-2.146,2.944-4.122,2.902
						c-0.687,0-1.804-0.043-2.49,0c-11.895,0.384-23.53-1.152-34.866-4.907c-0.601-0.213-1.202-0.384-1.804-0.427
						c-0.301-0.043-0.601,0.256-0.944,0.427c0.172,0.341,0.301,0.768,0.601,0.981c0.258,0.213,0.73,0.256,1.074,0.341
						c3.821,1.109,7.643,2.219,11.508,3.328c2.275,0.64,3.392,2.39,2.834,4.31c-0.602,2.049-2.448,2.987-4.767,2.347
						c-1.546-0.427-3.134-0.811-4.638-1.322c-2.146-0.726-4.207-0.598-6.269,0.256c-2.619,1.066-5.239,2.219-8.201,2.305
						c-0.301,0-0.601,0.555-0.901,0.811c0.344,0.213,0.772,0.726,1.072,0.64c1.977-0.341,3.908-0.725,5.84-1.237
						c0.988-0.256,1.933-0.768,2.92-1.152c1.804-0.683,3.607-0.811,5.539,0.086c-1.502,1.066-2.576,2.39-2.705,4.267
						c-0.086,1.878,0.73,3.371,2.318,4.609c-1.201,1.237-2.018,2.603-1.803,4.395c0.215,1.793,1.245,2.987,2.748,4.097
						c-0.602,0-3.822,0.598-4.38,0.641c-4.294,0.341-6.483,0.299-9.747-0.854c-4.165-1.451-6.655-3.457-8.287-7.383
						c-1.116-2.688-2.104-5.334-2.104-10.369c0-6.06,1.589-9.729,2.791-11.479c1.631-2.304,4.852-4.822,7.428-5.932
						c3.65-1.579,8.416-0.981,12.624-0.384c4.638,0.683,6.14,1.75,10.435,2.603c0,0,17.132,1.877,24.131,1.877
						c1.804,0,3.135,0.683,3.95,2.262C62.772,18.518,62.815,19.116,62.858,19.798L62.858,19.798z"/>
					<path clip-path="url(#SVGID_10_)" fill="#2AA2C8" d="M56.847,23.554c1.761,3.114,3.564,5.932,4.294,9.26
						c0.387,1.835-0.386,3.713-1.846,4.694c-1.417,0.896-3.521,0.896-4.896-0.043c-1.417-0.981-2.232-2.944-1.803-4.736
						C53.326,29.442,55.087,26.584,56.847,23.554L56.847,23.554z"/>
					<path clip-path="url(#SVGID_10_)" fill="#2AA2C8" d="M39.414,39.001c-4.423-0.555-8.502-1.024-12.538-1.621
						c-1.933-0.299-3.048-2.092-2.748-4.012c0.258-1.707,1.89-3.072,3.692-2.859c3.994,0.47,8.03,0.981,12.023,1.537
						c1.546,0.213,2.447,1.237,2.791,2.688c0.343,1.366-0.129,2.561-1.245,3.371C40.745,38.617,39.887,38.83,39.414,39.001
						L39.414,39.001z"/>
					<path clip-path="url(#SVGID_10_)" fill="#2AA2C8" d="M35.507,22.871c3.092,0.384,5.883,0.64,8.631,1.11
						c1.889,0.341,3.005,2.176,2.662,4.054c-0.301,1.75-2.019,2.987-3.907,2.773c-2.705-0.299-5.368-0.683-8.287-1.023
						C36.451,27.735,36.795,25.517,35.507,22.871L35.507,22.871z"/>
					<path clip-path="url(#SVGID_10_)" fill="#2AA2C8" d="M28.336,39.172c1.89,0.256,4.208,0.512,6.483,0.854
						c1.546,0.256,2.577,1.664,2.448,3.157c-0.129,1.536-1.46,2.902-3.049,2.774c-2.447-0.171-4.938-0.513-7.429-0.939
						c-1.503-0.256-2.49-1.877-2.232-3.328C24.814,40.068,26.146,39.087,28.336,39.172L28.336,39.172z"/>
				</g>
			</g>
		</g>
	</g>
</g>
</svg>
