<?xml version="1.0" encoding="utf-8"?>
<!-- Generator: Adobe Illustrator 16.0.3, SVG Export Plug-In . SVG Version: 6.00 Build 0)  -->
<!DOCTYPE svg PUBLIC "-//W3C//DTD SVG 1.1//EN" "http://www.w3.org/Graphics/SVG/1.1/DTD/svg11.dtd">
<svg version="1.1" id="Capa_1" xmlns="http://www.w3.org/2000/svg" xmlns:xlink="http://www.w3.org/1999/xlink" x="0px" y="0px"
	 width="64px" height="57.875px" viewBox="0 0 64 57.875" enable-background="new 0 0 64 57.875" xml:space="preserve">
<g>
	<path fill-rule="evenodd" clip-rule="evenodd" fill="#2AA2C8" d="M32.293,35.46c-0.121,1.13-0.246,2.259-0.361,3.389
		c-0.289,2.825-0.57,5.65-0.857,8.475c-0.208,2.053-0.415,4.105-0.633,6.158c-0.032,0.309-0.095,0.62-0.189,0.916
		c-0.29,0.912-0.906,1.352-1.711,1.252c-1.002-0.125-1.632-0.688-1.638-1.664c-0.01-1.748,0.061-3.499,0.121-5.246
		c0.086-2.509,0.222-5.015,0.286-7.523c0.111-4.407,0.222-8.815,0.255-13.224c0.015-1.927-0.161-3.855-0.252-5.783
		c-0.043-0.003-0.085-0.006-0.129-0.008c-0.063,0.499-0.136,1-0.186,1.5c-0.246,2.463-0.485,4.928-0.728,7.392
		c-0.021,0.214-0.051,0.427-0.09,0.636c-0.182,0.956-0.745,1.399-1.661,1.315c-0.841-0.077-1.346-0.621-1.286-1.566
		c0.098-1.563,0.266-3.123,0.426-4.683c0.242-2.364,0.497-4.727,0.758-7.088c0.117-1.05,0.233-2.102,0.407-3.143
		c0.34-2.032,2.051-3.549,4.208-3.815c2.307-0.285,4.61-0.282,6.919-0.003c2.254,0.272,4.037,2.121,4.3,4.523
		c0.479,4.382,0.945,8.763,1.399,13.146c0.055,0.535,0.076,1.092-0.011,1.618c-0.108,0.657-0.614,0.984-1.338,1.014
		c-0.743,0.031-1.252-0.229-1.399-0.907c-0.203-0.931-0.297-1.887-0.396-2.835c-0.248-2.331-0.469-4.664-0.718-6.994
		c-0.013-0.114-0.177-0.212-0.27-0.318c-0.088,0.112-0.215,0.209-0.254,0.336c-0.054,0.168-0.054,0.359-0.051,0.54
		c0.082,4.373,0.146,8.749,0.256,13.123c0.083,3.301,0.221,6.601,0.337,9.9c0.085,2.408,0.188,4.816,0.255,7.226
		c0.013,0.454-0.068,0.924-0.183,1.366c-0.195,0.756-0.693,1.123-1.469,1.174c-0.761,0.05-1.307-0.215-1.567-0.942
		c-0.241-0.675-0.407-1.396-0.479-2.11c-0.432-4.203-0.825-8.411-1.234-12.616c-0.118-1.216-0.24-2.432-0.383-3.645
		c-0.036-0.312-0.164-0.612-0.249-0.918C32.429,35.437,32.361,35.448,32.293,35.46z"/>
	<path fill-rule="evenodd" clip-rule="evenodd" fill="#2AA2C8" d="M51.526,51.396c-3.071-0.769-6.069-1.52-9.125-2.284
		c1.47-2.797,2.906-5.534,4.385-8.351c0.616,1.365,1.195,2.648,1.827,4.051c0.634-0.815,1.226-1.52,1.756-2.267
		c2.078-2.922,3.526-6.109,4.014-9.688c0.664-4.88-0.604-9.221-3.688-13.041c-1.455-1.801-3.204-3.28-5.112-4.579
		c-0.571-0.388-0.783-0.944-0.635-1.591c0.126-0.551,0.625-1.01,1.241-1.041c0.296-0.014,0.65,0.047,0.892,0.206
		c4.615,3.061,8.106,7.013,9.631,12.45c1.357,4.846,0.734,9.547-1.244,14.111c-1.254,2.892-2.998,5.466-5.15,7.761
		c-0.339,0.361-0.435,0.631-0.195,1.095c0.444,0.864,0.812,1.768,1.208,2.657C51.395,51.028,51.444,51.18,51.526,51.396z"/>
	<path fill-rule="evenodd" clip-rule="evenodd" fill="#2AA2C8" d="M32.492,2.237c2.339-0.325,4.621,2.527,4.533,4.468
		c-0.118,2.627-1.961,4.565-4.602,4.559c-2.51-0.005-4.469-2-4.523-4.5C27.857,4.852,29.762,2.038,32.492,2.237z"/>
	<path fill-rule="evenodd" clip-rule="evenodd" fill="#2AA2C8" d="M13.496,10.994c3.073,0.768,6.074,1.517,9.134,2.281
		c-1.453,2.77-2.889,5.505-4.381,8.348c-0.673-1.494-1.304-2.893-1.966-4.363c-0.333,0.281-0.627,0.53-0.95,0.802
		c-0.349-0.375-0.692-0.745-1.095-1.179c0.354-0.314,0.678-0.633,1.035-0.91c0.256-0.198,0.285-0.37,0.147-0.665
		c-0.584-1.255-1.14-2.524-1.705-3.787C13.65,11.375,13.592,11.226,13.496,10.994z"/>
	<path fill-rule="evenodd" clip-rule="evenodd" fill="#2AA2C8" d="M7.458,37.239c0.53-0.167,1.026-0.322,1.561-0.489
		c0.695,2.278,1.793,4.313,3.274,6.227c-0.417,0.321-0.825,0.638-1.272,0.984C9.343,41.975,8.235,39.723,7.458,37.239z"/>
	<path fill-rule="evenodd" clip-rule="evenodd" fill="#2AA2C8" d="M9.332,22.56c0.488,0.314,0.916,0.591,1.374,0.885
		c-1.277,1.989-2.231,4.07-2.585,6.433c-0.535-0.073-1.032-0.14-1.557-0.209C6.901,27.046,7.896,24.743,9.332,22.56z"/>
	<path fill-rule="evenodd" clip-rule="evenodd" fill="#2AA2C8" d="M16.747,49.024c0.295-0.565,0.531-1.014,0.76-1.452
		c0.915,0.349,1.802,0.688,2.738,1.045c-0.112,0.478-0.227,0.968-0.369,1.573C18.829,49.801,17.823,49.425,16.747,49.024z"/>
</g>
</svg>
