<?xml version="1.0" encoding="utf-8"?>
<!-- Generator: Adobe Illustrator 16.0.3, SVG Export Plug-In . SVG Version: 6.00 Build 0)  -->
<!DOCTYPE svg PUBLIC "-//W3C//DTD SVG 1.1//EN" "http://www.w3.org/Graphics/SVG/1.1/DTD/svg11.dtd">
<svg version="1.1" id="Capa_1" xmlns="http://www.w3.org/2000/svg" xmlns:xlink="http://www.w3.org/1999/xlink" x="0px" y="0px"
	 width="64px" height="57.875px" viewBox="0 0 64 57.875" enable-background="new 0 0 64 57.875" xml:space="preserve">
<g>
	<g>
		<defs>
			<polygon id="SVGID_1_" points="0.5,60.438 63.5,60.438 63.5,-2.563 0.5,-2.563 0.5,60.438 			"/>
		</defs>
		<clipPath id="SVGID_2_">
			<use xlink:href="#SVGID_1_"  overflow="visible"/>
		</clipPath>
		<g clip-path="url(#SVGID_2_)">
			<defs>
				<polygon id="SVGID_3_" points="0.5,-2.563 63.5,-2.563 63.5,60.438 0.5,60.438 0.5,-2.563 				"/>
			</defs>
			<clipPath id="SVGID_4_">
				<use xlink:href="#SVGID_3_"  overflow="visible"/>
			</clipPath>
		</g>
	</g>
</g>
<g>
	<path fill-rule="evenodd" clip-rule="evenodd" fill="#2AA2C8" d="M22.175,22.171c-0.19,2.378-0.495,4.619-0.527,6.864
		c-0.126,8.346-1.062,16.574-3.266,24.643c-0.427,1.561,0.478,3.065,1.986,3.457c1.334,0.347,2.829-0.454,3.137-1.989
		c1.124-5.601,3.067-11.055,3.012-16.867c-0.005-0.546-0.136-1.155,0.312-1.783c0.932,1.037,1.723,2.031,2.635,2.898
		c1.013,0.966,1.503,2.015,1.53,3.466c0.061,3.359,0.323,6.716,0.493,10.071c0.098,1.853,1.235,3.067,2.821,2.994
		c1.552-0.072,2.534-1.238,2.481-3.089c-0.071-2.646-0.371-5.294-0.289-7.934c0.119-3.985-0.62-7.521-3.997-10.088
		c-0.43-0.325-0.731-0.818-1.099-1.229c-0.257-0.288-0.542-0.551-0.542-0.982c0.003-3.256,0.001-6.509,0.001-9.764
		c0.435,0.312,0.667,0.629,0.756,0.984c0.841,3.236,2.894,5.182,6.14,5.951c0.795,0.193,1.515,0.668,2.301,0.912
		c0.783,0.242,0.94,0.576,0.819,1.434c-0.232,1.619,0.401,3.024,1.677,4.094c0.563,0.471,1.157,0.632,1.772,0.072
		c0.588-0.536,0.568-1.161,0.236-1.801c-0.176-0.337-0.512-0.6-0.653-0.946c-0.339-0.812-0.334-1.625,0.336-2.297
		c0.67-0.675,1.534-0.72,2.299-0.339c1.009,0.498,1.161,1.495,1.16,2.546c-0.015,7.28-0.004,14.56-0.013,21.84
		c-0.001,0.942,0.054,1.905,1.26,1.921c1.15,0.015,1.391-0.881,1.391-1.853c0-7.556,0.021-15.113-0.02-22.669
		c-0.01-1.758-0.714-3.405-2.387-4.04c-1.715-0.651-3.272-1.4-4.785-2.458c-1.274-0.893-2.906-1.29-4.41-1.826
		c-0.795-0.282-1.249-0.755-1.567-1.527c-0.967-2.343-2.013-4.652-3.012-6.98c-1.693-3.947-4.999-4.999-8.551-2.671
		c-2.719,1.78-5.406,3.607-8.11,5.413c-0.844,0.563-1.58,1.23-1.823,2.264c-0.668,2.839-1.313,5.683-1.968,8.519
		c-0.102,0.443-0.077,0.866,0.083,1.299c0.43,1.158,1.226,1.826,2.48,1.826c1.384-0.002,2.317-0.697,2.655-2.037
		c0.552-2.184,1.07-4.378,1.536-6.585C20.657,22.975,21.074,22.393,22.175,22.171z M32.721,11.28
		c2.946-0.02,5.409-2.502,5.332-5.379c-0.077-2.831-2.516-5.215-5.365-5.241c-2.904-0.025-5.399,2.469-5.369,5.362
		C27.351,9.013,29.7,11.301,32.721,11.28z"/>
	<path fill-rule="evenodd" clip-rule="evenodd" fill="#2AA2C8" d="M22.175,22.171c-1.101,0.221-1.518,0.803-1.71,1.713
		c-0.466,2.207-0.984,4.401-1.536,6.585c-0.338,1.34-1.271,2.035-2.655,2.037c-1.254,0-2.05-0.668-2.48-1.826
		c-0.16-0.433-0.185-0.855-0.083-1.299c0.655-2.836,1.3-5.68,1.968-8.519c0.244-1.034,0.979-1.701,1.823-2.264
		c2.704-1.806,5.391-3.633,8.11-5.413c3.553-2.328,6.858-1.276,8.551,2.671c0.999,2.328,2.045,4.637,3.012,6.98
		c0.318,0.771,0.772,1.245,1.567,1.527c1.504,0.536,3.136,0.933,4.41,1.826c1.513,1.058,3.07,1.807,4.785,2.458
		c1.673,0.635,2.377,2.282,2.387,4.04c0.04,7.556,0.02,15.113,0.02,22.669c0,0.972-0.24,1.867-1.391,1.853
		c-1.206-0.016-1.261-0.979-1.26-1.921c0.009-7.28-0.002-14.56,0.013-21.84c0.001-1.051-0.151-2.048-1.16-2.546
		c-0.765-0.381-1.629-0.336-2.299,0.339c-0.67,0.672-0.675,1.485-0.336,2.297c0.142,0.347,0.478,0.609,0.653,0.946
		c0.332,0.64,0.352,1.265-0.236,1.801c-0.615,0.56-1.209,0.398-1.772-0.072c-1.275-1.069-1.909-2.475-1.677-4.094
		c0.121-0.857-0.036-1.191-0.819-1.434c-0.786-0.244-1.506-0.719-2.301-0.912c-3.246-0.769-5.299-2.715-6.14-5.951
		c-0.09-0.355-0.321-0.672-0.756-0.984c0,3.254,0.002,6.508-0.001,9.764c0,0.432,0.285,0.694,0.542,0.982
		c0.367,0.411,0.669,0.904,1.099,1.229c3.377,2.566,4.116,6.103,3.997,10.088c-0.082,2.64,0.218,5.287,0.289,7.934
		c0.053,1.851-0.93,3.017-2.481,3.089c-1.586,0.073-2.724-1.142-2.821-2.994c-0.17-3.355-0.432-6.712-0.493-10.071
		c-0.027-1.451-0.517-2.5-1.53-3.466c-0.912-0.867-1.703-1.861-2.635-2.898c-0.448,0.628-0.317,1.237-0.312,1.783
		c0.055,5.813-1.888,11.267-3.012,16.867c-0.308,1.535-1.802,2.336-3.137,1.989c-1.508-0.392-2.413-1.896-1.986-3.457
		c2.204-8.068,3.14-16.297,3.266-24.643C21.68,26.79,21.985,24.549,22.175,22.171z"/>
	<path fill-rule="evenodd" clip-rule="evenodd" fill="#2AA2C8" d="M32.721,11.28c-3.021,0.021-5.37-2.267-5.402-5.257
		c-0.03-2.894,2.465-5.387,5.369-5.362c2.85,0.026,5.288,2.41,5.365,5.241C38.13,8.777,35.667,11.26,32.721,11.28z"/>
</g>
</svg>
