<svg id="Capa_1" data-name="Capa 1" xmlns="http://www.w3.org/2000/svg" viewBox="0 0 241.68 539.64"><defs><style>.cls-1{fill:#9cb1b9;}</style></defs><path class="cls-1" d="M121.26,8.77c3.61,1.77,7.59,2.7,10.92,5.11,8.29,6,10.9,14.41,10.56,24.18-.08,2.4-.34,4.39,2.13,6.63,3,2.72.06,6.11-1.64,9.08-4.27,7.43-8.84,14.69-7.8,24,.66,6,3.07,10.28,8.42,13a41.36,41.36,0,0,0,15.54,4.71c18.5,1.43,26.18,15.23,27.07,32.07.58,10.9.17,21.84.29,32.77.17,16,2.86,31.48,10.14,46,3.65,7.27,4.27,15.37,5,23.36.66,6.79,1.45,13.57,2.2,20.34.63,5.63,3.35,10.3,6.72,14.67a136.07,136.07,0,0,1,12.59,18.62,11.14,11.14,0,0,1,.91,1.83c.87,2.64,3.45,6,.55,7.86s-4.4-2.09-6.29-3.83a15.59,15.59,0,0,1-1.72-2.33l-1.23.76c1.19,3.87,2.42,7.72,3.56,11.6.72,2.45,1.38,4.93,1.93,7.42.29,1.3.67,3-.91,3.62s-2.57-.59-3.27-1.77a37.43,37.43,0,0,0-5.3-7.71c.17,3.48.5,6.95.47,10.42,0,2,1,5.32-1.78,5.6-2.51.26-2.67-3.05-3.07-5.11-.73-3.72-1.2-7.5-2.95-11.22-.29,4.06-.52,8.12-.9,12.17-.15,1.47-.22,3.56-2,3.69S199.2,314.47,199,313c-.48-3.53-.82-7.09-1.33-11.69-.9,2.59-1.4,4.37-2.13,6.06-.5,1.15-.68,3.05-2.5,2.63-1.34-.31-1.28-2-1.21-3.09.59-9.92-1.86-19.8-.89-29.62s-2.13-18.08-6.73-26.2c-7.43-13.09-14.06-26.55-16.34-41.63-1.2-7.9-.45-16-2.59-23.87-.71-2.61-1.26-5.26-3.31-8-1.48,3.89-1,7.58-1.25,11.08-1,15.13-3,30.34-.61,45.44,1.08,6.82,3.95,13.35,6,20,5.37,17.64,5.53,35.47,2.89,53.65-2.91,20.08-5.68,40.15-9.35,60.12-1.9,10.34-1.82,21-2.54,31.59a9.22,9.22,0,0,0,.68,4c7.13,17.55,3.92,34.8-1.2,52.08-3.39,11.42-8,22.49-10,34.29a47.45,47.45,0,0,0,2.73,26.53c4.74,11.75,4.63,12.84-8.8,15.19-2.94.51-6.49-1.34-9,1.64h-8.18c-5.46-2.08-6.83-4.16-4.75-10.2,3.65-10.56,4.64-21.68,7.4-32.37,3.44-13.36,3.64-26.67,1.75-40.09-1.44-10.29-.56-20.42.73-30.58.66-5.28,1.11-10.63.1-15.82-5.52-28.48-9-57.24-12.34-86.08-1.5,9-2,18-3.3,27-2.59,18.41-4.52,36.92-8.45,55.12-1.88,8.68-1.22,17.37.12,26,1.66,10.62.48,21.12-.56,31.62-1,9.6-.93,19,1.49,28.43,3.18,12.37,3.93,25.27,8.4,37.39,1.42,3.87,1,7.89-3.88,9.61H99.8c-2.49-2.73-6.1-.09-8.82-1.85-.34-.22-1,.2-1.5.06-9.15-2.84-11.61-2.22-7.57-11.56,6.85-15.82,4.9-30.73-.35-46.2C77.23,460.89,73,448.09,71,434.7c-1.34-9-.94-17.71,2.15-26.22,2-5.45,1.32-10.9,1.37-16.52.2-20.19-5.42-39.48-7.87-59.24-1.89-15.23-4.6-30.38-5.21-45.73-.64-16.1,3.91-31.36,9.16-46.36a41.37,41.37,0,0,0,2.44-12.46c.51-16.73-1-33.37-2.15-50.48-2.66,1.55-2.92,4.11-3.42,6.21-1,4.3-2.2,8.73-2.14,13.09.25,18.62-6.83,34.89-15.37,50.78-1.77,3.3-3.58,6.58-5.21,10A32,32,0,0,0,41.37,275c1,10.56-1.54,21.08-.87,31.67.07,1.22.33,3.15-1.48,3.31s-1.88-1.74-2.36-2.94a34.88,34.88,0,0,0-2-4.85c-.47,3.71-.48,7.47-1.38,11.08-.34,1.37-.79,3-2.31,3-1.71,0-1.88-1.78-2-3.07-.43-4.82-.73-9.66-2.07-14.57-.55,3.91-1.06,7.82-1.67,11.72a26.22,26.22,0,0,1-1.07,4.45c-.37,1.08-.82,2.49-2.35,2.2s-1.57-1.7-1.59-2.86a67,67,0,0,0-.94-12.81c-1.13,2.15-2.19,4.35-3.44,6.44-.85,1.43-2,3.24-3.9,2.36-1.71-.78-1-2.71-.63-4.15,1.42-5.08,3-10.12,4.41-15.2a32.92,32.92,0,0,0,.46-4.41c-2.41,2.63-3.91,4.36-5.52,6-.84.84-1.95,1.64-3.19,1-1.46-.75-1.36-2.19-1.08-3.59.94-4.81,3.77-8.71,6.22-12.79a25.88,25.88,0,0,1,3.5-5C27,261,29.5,247.14,30.25,232.58a82.43,82.43,0,0,1,7.74-32c5.35-11.13,7.12-23.45,7.49-35.8.35-11.77.17-23.55.26-35.32a44.4,44.4,0,0,1,3.95-18.33c3.66-8,9.62-13.11,18.35-14.67,6.37-1.14,12.76-2.18,18.73-4.81,9.91-4.36,13.81-17.6,8-26.82-2.88-4.56-3.91-10-7.44-14.35-1.63-2-2.2-5.19,1.36-6.85,1.18-.56,1.1-1.67,1-2.64C87.94,24.83,95,14.28,110,8.77Z"/></svg>