<?xml version="1.0" encoding="utf-8"?>
<!-- Generator: Adobe Illustrator 16.0.3, SVG Export Plug-In . SVG Version: 6.00 Build 0)  -->
<!DOCTYPE svg PUBLIC "-//W3C//DTD SVG 1.1//EN" "http://www.w3.org/Graphics/SVG/1.1/DTD/svg11.dtd">
<svg version="1.1" id="Capa_1" xmlns="http://www.w3.org/2000/svg" xmlns:xlink="http://www.w3.org/1999/xlink" x="0px" y="0px"
	 width="64px" height="57.875px" viewBox="0 0 64 57.875" enable-background="new 0 0 64 57.875" xml:space="preserve">
<g>
	<path fill="#2AA2C8" d="M43.471,15.444c0.049-0.206,0.097-0.411,0.133-0.622c0.041-0.223,0.076-0.446,0.103-0.673
		c0.046-0.386,0.077-0.778,0.084-1.176c0-0.079,0.013-0.157,0.013-0.237C43.78,6.284,38.544,1.058,32.086,1.058
		c-3.629,0-6.875,1.654-9.024,4.249c-1.664,2.021-2.665,4.607-2.665,7.423c0,6.452,5.25,11.701,11.703,11.701
		C37.616,24.431,42.24,20.59,43.471,15.444z"/>
	<path fill="#2AA2C8" d="M39.615,23.756c-2.144,1.464-4.73,2.324-7.516,2.324c-2.729,0-5.267-0.827-7.383-2.237
		C14.006,27.818,8.312,40.382,7.315,52.891c-0.169,2.151,1.529,3.984,3.686,3.984h42.194c2.132,0,3.834-1.795,3.689-3.921
		C56.03,40.326,50.952,27.629,39.615,23.756z"/>
</g>
</svg>
