<svg id="Capa_1" data-name="Capa 1" xmlns="http://www.w3.org/2000/svg" viewBox="0 0 317.62 306.13"><defs><style>.cls-1{fill:#9cb1b9;}.cls-2{fill:#fff;}</style></defs><circle class="cls-1" cx="156.28" cy="155.71" r="146.54"/><path class="cls-2" d="M156.93,243.19H65.54c-6,0-8.43-2.54-8.26-8.49,1.23-41.87,30.11-76.1,71.16-84.29A70.46,70.46,0,0,1,143.63,149c13,.26,26.07-.81,39.07.88,33.19,4.33,62.56,30.19,71.35,62.79A96.64,96.64,0,0,1,257.29,234c.26,6.72-2,9.17-8.62,9.18Z"/><path class="cls-2" d="M108.42,103.26a48.89,48.89,0,1,1,48.64,49.09A48.9,48.9,0,0,1,108.42,103.26Z"/></svg>