<?xml version="1.0" encoding="utf-8"?>
<!-- Generator: Adobe Illustrator 16.0.3, SVG Export Plug-In . SVG Version: 6.00 Build 0)  -->
<!DOCTYPE svg PUBLIC "-//W3C//DTD SVG 1.1//EN" "http://www.w3.org/Graphics/SVG/1.1/DTD/svg11.dtd">
<svg version="1.1" id="Capa_1" xmlns="http://www.w3.org/2000/svg" xmlns:xlink="http://www.w3.org/1999/xlink" x="0px" y="0px"
	 width="64px" height="57.875px" viewBox="0 0 64 57.875" enable-background="new 0 0 64 57.875" xml:space="preserve">
<g>
	<path fill-rule="evenodd" clip-rule="evenodd" fill="#2AA2C8" d="M20.375,1.434c2.043-0.08,4.163,0.62,6.306,1.175
		c1.592,0.414,3.184,0.826,4.772,1.253c0.365,0.098,0.705,0.101,1.074,0.002c2.6-0.688,5.185-1.44,7.807-2.021
		c5.094-1.129,9.601-0.088,13.17,3.928c4.826,5.429,4.602,14.286-0.481,19.425c-0.407,0.412-0.512,0.867-0.579,1.396
		c-0.717,5.722-1.372,11.454-2.201,17.158c-0.532,3.683-1.759,7.146-4.213,10.057c-0.675,0.801-1.424,1.525-2.333,2.068
		c-1.684,1.005-3.31,0.673-4.464-0.913c-1.054-1.45-1.525-3.135-1.941-4.836c-0.691-2.813-1.063-5.688-1.596-8.534
		c-0.231-1.236-0.609-2.435-1.262-3.52c-0.48-0.799-1.096-1.492-2.084-1.641c-1.229-0.185-2.041,0.498-2.66,1.438
		c-0.895,1.356-1.271,2.904-1.545,4.481c-0.514,2.955-0.921,5.932-1.723,8.829c-0.335,1.209-0.742,2.393-1.438,3.455
		c-1.313,2.002-3.051,2.374-5.009,1.021c-2.062-1.426-3.381-3.45-4.407-5.687c-1.345-2.932-1.893-6.059-2.273-9.231
		c-0.576-4.819-1.195-9.634-1.778-14.452c-0.062-0.514-0.331-0.848-0.666-1.193C4.487,18.539,6.315,6.809,14.333,2.749
		C16.161,1.824,18.111,1.404,20.375,1.434z"/>
</g>
</svg>
