<svg id="Capa_1" data-name="Capa 1" xmlns="http://www.w3.org/2000/svg" viewBox="0 0 1920 508.6"><defs><style>.cls-1{fill:#f53945;}.cls-2{fill:#cfd9da;}.cls-3{fill:#a9bec6;}.cls-4{fill:#628390;}.cls-5{fill:#afc1c6;}.cls-6{fill:#b9c4c6;}.cls-7{fill:#1968a8;}.cls-8{fill:#e93c46;}</style></defs><path class="cls-1" d="M310.44,252.89H330.3V233H310.44Z"/><path class="cls-1" d="M310.49,223h19.86V203.14H310.49Z"/><path class="cls-1" d="M310.44,282.77H330.3V262.91H310.44Z"/><path class="cls-1" d="M280.68,252.8h19.86V233H280.68Z"/><path class="cls-1" d="M340.3,252.72h19.86V232.86H340.3Z"/><path class="cls-2" d="M221.2,252.81h19.86V233H221.2Z"/><path class="cls-2" d="M280.77,282.77h19.85V262.91H280.77Z"/><path class="cls-2" d="M251,282.68h19.86V262.82H251Z"/><path class="cls-2" d="M280.71,223.11h19.86V203.26H280.71Z"/><path class="cls-2" d="M250.92,223.18h19.86V203.32H250.92Z"/><path class="cls-2" d="M340.18,282.92H360V263.06H340.18Z"/><path class="cls-2" d="M310.73,312.53h19.86V292.67H310.73Z"/><path class="cls-2" d="M250.93,312.53h19.86V292.67H250.93Z"/><path class="cls-2" d="M310.58,342.75h19.86V322.89H310.58Z"/><path class="cls-2" d="M280.76,342.6h19.85V322.73H280.76Z"/><path class="cls-2" d="M340.4,342.6h19.86V322.73H340.4Z"/><path class="cls-2" d="M370.26,223.11h19.86V203.26H370.26Z"/><path class="cls-2" d="M280.6,193.24h19.86V173.38H280.6Z"/><path class="cls-2" d="M340.28,193.35h19.86V173.49H340.28Z"/><path class="cls-3" d="M118.21,258.49a184.24,184.24,0,0,1,26.53-90.06,8.54,8.54,0,1,1,14.63,8.82A167.22,167.22,0,0,0,426.65,375.64a8.55,8.55,0,0,1,12.06-.6,9.08,9.08,0,0,1,1.08,1.19h0a8.54,8.54,0,0,1-.5,10.86,185.49,185.49,0,0,1-25.88,23.63A184.47,184.47,0,0,1,118.21,258.49Z"/><path class="cls-2" d="M367.32,124.59a151.16,151.16,0,0,1,73.27,74,8.25,8.25,0,0,1,.26,6.38,8.42,8.42,0,0,1-15.57.63,134.42,134.42,0,0,0-162.76-72.17c-70.78,22.3-110.23,98-87.93,168.82a134.41,134.41,0,0,0,157.09,91.06l.45-.07a8.84,8.84,0,0,1,9.23,6.59c1.53,5.44-2.63,8.87-5.79,9.85a149.39,149.39,0,0,1-23.14,3.29,151.08,151.08,0,0,1-153.9-105.66c-25.09-79.64,19.29-164.85,98.93-189.94A151.33,151.33,0,0,1,367.32,124.59Z"/><path class="cls-4" d="M596.74,232.06V342.13H577.45V232.06Z"/><path class="cls-4" d="M596.74,343.49H577.45a1.37,1.37,0,0,1-1.37-1.37V232.06a1.37,1.37,0,0,1,1.37-1.37h19.29a1.37,1.37,0,0,1,1.37,1.37V342.12A1.37,1.37,0,0,1,596.74,343.49Zm-17.93-2.73h16.57V233.43H578.81Z"/><path class="cls-4" d="M439.36,343.51c-.9,0-1.8,0-2.72,0l-40.79-1.39.79-24.87,40.8,1.39c7.29.27,12.84-.81,16.52-3.14,2.23-1.41,3.35-3.11,3.42-5.19,0-1,.13-4.2-5.63-6.51-2.69-1.07-7.78-2.18-15.13-3.3-13.9-2.09-23.21-4.66-28.49-7.86-8.91-5.41-13.22-14.6-12.81-27.32.35-11,5.39-19.66,15-25.7,7.8-4.84,17.89-7.07,29.88-6.68l40.11,1.37-.8,24.86-40.1-1.36c-7.31-.27-12.84.81-16.51,3.13-2.28,1.39-3.36,3-3.43,5.2-.06,1.79.46,4.4,5.62,6.4,2.66,1.07,7.75,2.18,15.14,3.3,13.88,2.15,23.2,4.76,28.48,8,8.91,5.42,13.23,14.61,12.82,27.32-.35,11-5.4,19.64-15,25.6C459.35,341.22,450.21,343.51,439.36,343.51Z"/><path class="cls-4" d="M565.76,335.23h-.36c-2.67,0-4.71-3.45-4.72-7V302a67.46,67.46,0,0,0-2.06-17.48,33.23,33.23,0,0,0-6.56-13,29.19,29.19,0,0,0-11.47-8.24,44.42,44.42,0,0,0-16.92-2.87A42.54,42.54,0,0,0,504.85,265a38.56,38.56,0,0,0-6.87,4.82,29.36,29.36,0,0,0-6,7.39,40.57,40.57,0,0,0-4.2,10.48,56.5,56.5,0,0,0-1.58,14.13,59.25,59.25,0,0,0,1.5,14.14,41.26,41.26,0,0,0,4,10.41,29.62,29.62,0,0,0,5.54,7.22,33.22,33.22,0,0,0,6.4,4.75,36.6,36.6,0,0,0,17.4,4.34,33,33,0,0,0,9.48-2,29.68,29.68,0,0,0,8.07-5,20.16,20.16,0,0,0,3.32-3.64v2.7c0,5.93,6.28,6.38,6.28,6.38h17.62a2.94,2.94,0,1,0,0-5.87Zm-24.53-26a22,22,0,0,1-2.61,7.54,16.73,16.73,0,0,1-5.54,5.82c-2.37,1.56-5.51,2.33-9.41,2.33s-7-.77-9.4-2.33a16,16,0,0,1-5.46-5.82,23,23,0,0,1-2.53-7.54,43.8,43.8,0,0,1,0-14.92,23,23,0,0,1,2.53-7.52,15.92,15.92,0,0,1,5.46-5.83,16.93,16.93,0,0,1,9.4-2.34c4.11,0,7.38.68,9.81,2a13.52,13.52,0,0,1,5.46,5.37,21.5,21.5,0,0,1,2.37,7.45,62.25,62.25,0,0,1,.55,8.31A48.53,48.53,0,0,1,541.23,309.25Z"/><path class="cls-4" d="M521.07,344a38.27,38.27,0,0,1-18.14-4.52,35.07,35.07,0,0,1-6.68-4.94,31.32,31.32,0,0,1-5.79-7.55,43.05,43.05,0,0,1-4.1-10.75,61.27,61.27,0,0,1-1.54-14.47,57.93,57.93,0,0,1,1.63-14.48,42,42,0,0,1,4.35-10.83,30.93,30.93,0,0,1,6.28-7.72,40.3,40.3,0,0,1,7.12-5A44,44,0,0,1,523.63,259h0a45.84,45.84,0,0,1,17.48,3,30.89,30.89,0,0,1,12,8.61,34.88,34.88,0,0,1,6.83,13.58A69.17,69.17,0,0,1,562.05,302v26.29c0,2.89,1.63,5.62,3.34,5.62h.37a4.31,4.31,0,1,1,0,8.61H548.14c-2.55-.18-7.07-1.85-7.6-6.78-.37.36-.74.71-1.12,1A31.35,31.35,0,0,1,531,341.9,34.28,34.28,0,0,1,521.07,344Zm2.6-82.33a41.2,41.2,0,0,0-18.18,4.49,36.55,36.55,0,0,0-6.61,4.64,28.2,28.2,0,0,0-5.73,7.05,39,39,0,0,0-4,10.13,54.78,54.78,0,0,0-1.54,13.79A58.42,58.42,0,0,0,489,315.61a40.08,40.08,0,0,0,3.82,10.06,28.62,28.62,0,0,0,5.28,6.9,32.55,32.55,0,0,0,6.14,4.55A35.38,35.38,0,0,0,521,341.28a31.52,31.52,0,0,0,9-1.93,28.44,28.44,0,0,0,7.66-4.74,18.83,18.83,0,0,0,3.1-3.39,1.34,1.34,0,0,1,1.52-.5,1.37,1.37,0,0,1,1,1.3v2.7c0,4.48,4.5,5,5,5h17.51a1.59,1.59,0,0,0,1.62-1.56,1.62,1.62,0,0,0-1.62-1.57h-.37c-3.63,0-6.07-4.33-6.08-8.36V302a66.82,66.82,0,0,0-2-17.12A32.17,32.17,0,0,0,551,272.3a28.17,28.17,0,0,0-10.95-7.84A43.14,43.14,0,0,0,523.67,261.69Zm0,64.62c-4.15,0-7.57-.86-10.15-2.56a17.45,17.45,0,0,1-5.91-6.31,24.53,24.53,0,0,1-2.68-8,45,45,0,0,1,0-15.35,24.45,24.45,0,0,1,2.68-8,17.45,17.45,0,0,1,5.91-6.31,18.34,18.34,0,0,1,10.15-2.56c4.32,0,7.84.73,10.48,2.19a15,15,0,0,1,6,5.91,23.11,23.11,0,0,1,2.53,7.91,65.82,65.82,0,0,1,.56,8.5,49.74,49.74,0,0,1-.65,7.68h0a23.88,23.88,0,0,1-2.77,8,18,18,0,0,1-6,6.29C531.25,325.45,527.83,326.31,523.67,326.31Zm0-46.3a15.77,15.77,0,0,0-8.66,2.11,14.89,14.89,0,0,0-5,5.34,21.68,21.68,0,0,0-2.38,7.09,42.64,42.64,0,0,0,0,14.49,21.52,21.52,0,0,0,2.38,7.09,14.78,14.78,0,0,0,5,5.33,18.83,18.83,0,0,0,17.32,0,15.32,15.32,0,0,0,5.1-5.35,21,21,0,0,0,2.45-7.07h0a46.73,46.73,0,0,0,.61-7.25,63.53,63.53,0,0,0-.53-8.13,20.22,20.22,0,0,0-2.23-7,12.19,12.19,0,0,0-4.91-4.82C530.6,280.63,527.52,280,523.67,280Z"/><path class="cls-4" d="M607.35,263a30.94,30.94,0,0,1,4.6-1,42.83,42.83,0,0,1,6.5-.49,31.45,31.45,0,0,1,5.77.49,8.79,8.79,0,0,1,7,5.88,18.69,18.69,0,0,1,.95,6.52V309q0,6.6,2.92,9.42c1.95,1.88,4.77,2.81,8.47,2.81a19.32,19.32,0,0,0,5.48-.64,16.78,16.78,0,0,0,3.28-1.29V263a31.13,31.13,0,0,1,4.61-1,42.89,42.89,0,0,1,6.49-.49,31.48,31.48,0,0,1,5.78.49,8.75,8.75,0,0,1,7,5.88,18.71,18.71,0,0,1,.94,6.52v48.94q0,8.06-6.13,12.08a38.17,38.17,0,0,1-12.2,5.39,61,61,0,0,1-15.41,1.85,51.85,51.85,0,0,1-14.53-1.93,31.26,31.26,0,0,1-11.47-6A26.41,26.41,0,0,1,610,324.37,40.22,40.22,0,0,1,607.35,309Z"/><path class="cls-4" d="M682.66,301a54.21,54.21,0,0,1,2.83-18.43,35.39,35.39,0,0,1,7.88-13,31.47,31.47,0,0,1,11.77-7.65,41.48,41.48,0,0,1,14.53-2.5,26.61,26.61,0,0,1,5.53.57,20.21,20.21,0,0,1,4.4,1.36V235.26a35.25,35.25,0,0,1,4.52-1,36.5,36.5,0,0,1,6.39-.56,29.67,29.67,0,0,1,5.6.48,8.41,8.41,0,0,1,6.75,5.88,21.21,21.21,0,0,1,.85,6.52v76.32a14.19,14.19,0,0,1-6.25,12.07,40.62,40.62,0,0,1-10.63,5.39,48.94,48.94,0,0,1-31.55-.56,33.05,33.05,0,0,1-12.34-8.37,36.48,36.48,0,0,1-7.65-13.12A53.16,53.16,0,0,1,682.66,301Zm40.27-20.12q-7.65,0-11.77,5T707.05,301q0,10,3.82,15.06t11.06,5.07a11.49,11.49,0,0,0,4.61-.89,10.36,10.36,0,0,0,3.2-2V282.76A11.81,11.81,0,0,0,722.93,280.83Z"/><path class="cls-5" d="M872.42,241.89c0-2.39,0-4.18.09-5.38a3.58,3.58,0,0,1,1-2.61,4.34,4.34,0,0,1,2.84-.89c1.32-.06,3.25-.09,5.77-.09s4.46,0,5.77.09a4.37,4.37,0,0,1,2.85.89,3.66,3.66,0,0,1,.95,2.61c.06,1.2.08,3,.08,5.38s0,4.19-.08,5.38a3.64,3.64,0,0,1-.95,2.61,4.37,4.37,0,0,1-2.85.89c-1.31.06-3.24.09-5.77.09s-4.45,0-5.77-.09a4.34,4.34,0,0,1-2.84-.89,3.56,3.56,0,0,1-1-2.61C872.45,246.08,872.42,244.28,872.42,241.89Zm19.3,18.43V343h-19.3V260.32Z"/><path class="cls-5" d="M933.38,258.2q10,0,16.92,2.93a28.79,28.79,0,0,1,11.47,8.56,35.73,35.73,0,0,1,6.56,13.7,74.5,74.5,0,0,1,2.06,18.34v29a68.56,68.56,0,0,1-.56,9.05,62.89,62.89,0,0,1-1.5,7.74,29.4,29.4,0,0,1-4.67,9.87,30.42,30.42,0,0,1-8.3,7.75,40.78,40.78,0,0,1-12,5.05,64.48,64.48,0,0,1-16,1.8l-21-.17V353.45h17.09q10.76,0,16.44-2.29t8.31-5.45a12.62,12.62,0,0,0,3-6.45,46.24,46.24,0,0,0,.4-5.05v-2.64l3.48-4.72a26.42,26.42,0,0,1-6.81,10.43,29.88,29.88,0,0,1-8.06,5.22,31.94,31.94,0,0,1-9.49,2.12,35.24,35.24,0,0,1-17.39-4.56,33.84,33.84,0,0,1-6.41-5,31,31,0,0,1-5.53-7.59,44.13,44.13,0,0,1-4-10.92,65.07,65.07,0,0,1-1.51-14.84,61.54,61.54,0,0,1,1.59-14.83,43.82,43.82,0,0,1,4.19-11,30.69,30.69,0,0,1,6-7.75,37.87,37.87,0,0,1,6.88-5.05A40.7,40.7,0,0,1,933.38,258.2Zm18.19,43.53A68.4,68.4,0,0,0,951,293a23.27,23.27,0,0,0-2.37-7.82,13.86,13.86,0,0,0-5.45-5.64c-2.43-1.4-5.7-2.12-9.81-2.12-3.91,0-7,.82-9.41,2.45a16.62,16.62,0,0,0-5.45,6.12,25.05,25.05,0,0,0-2.54,7.9,49,49,0,0,0,0,15.66,25,25,0,0,0,2.54,7.91,16.52,16.52,0,0,0,5.45,6.11c2.37,1.63,5.5,2.45,9.41,2.45a16.34,16.34,0,0,0,9.41-2.45,17.19,17.19,0,0,0,5.53-6.11,23.93,23.93,0,0,0,2.61-7.91A52.25,52.25,0,0,0,951.57,301.73Z"/><path class="cls-5" d="M974.68,241.89c0-2.39,0-4.18.08-5.38a3.62,3.62,0,0,1,1-2.61,4.36,4.36,0,0,1,2.84-.89c1.32-.06,3.25-.09,5.78-.09s4.45,0,5.77.09a4.34,4.34,0,0,1,2.84.89,3.62,3.62,0,0,1,.95,2.61c.06,1.2.08,3,.08,5.38s0,4.19-.08,5.38a3.6,3.6,0,0,1-.95,2.61,4.34,4.34,0,0,1-2.84.89c-1.32.06-3.25.09-5.77.09s-4.46,0-5.78-.09a4.36,4.36,0,0,1-2.84-.89,3.6,3.6,0,0,1-1-2.61C974.7,246.08,974.68,244.28,974.68,241.89ZM994,260.32V343H974.68V260.32Z"/><path class="cls-5" d="M1017.94,279.72v36.37a9.4,9.4,0,0,0,1.74,3.58,11,11,0,0,0,3.08,2.44,10.13,10.13,0,0,0,5.15,1.15h12V343h-19.29a26.79,26.79,0,0,1-11.07-3.59,24.84,24.84,0,0,1-7.51-7.26c-2.28-3.21-3.41-7.63-3.41-13.29V232.92h19.3v27.4h18.18v19.4Z"/><path class="cls-5" d="M1144.3,232.92V343H1125V232.92Z"/><path class="cls-5" d="M1120.6,336.83h-.37c-2.66,0-4.71-3.63-4.71-7.34V301.9a74.58,74.58,0,0,0-2.06-18.35,35.62,35.62,0,0,0-6.56-13.69,29.34,29.34,0,0,0-11.47-8.64,42.46,42.46,0,0,0-16.92-3,40.7,40.7,0,0,0-18.82,4.89,37.87,37.87,0,0,0-6.88,5.05,30.69,30.69,0,0,0-6,7.75,44.36,44.36,0,0,0-4.19,11,61.58,61.58,0,0,0-1.58,14.83,65.11,65.11,0,0,0,1.5,14.84,44.53,44.53,0,0,0,4,10.92,31,31,0,0,0,5.53,7.59,33.84,33.84,0,0,0,6.41,5,35.24,35.24,0,0,0,17.39,4.56,31.94,31.94,0,0,0,9.49-2.12,29.64,29.64,0,0,0,8.06-5.22,20.48,20.48,0,0,0,3.33-3.82v2.83c0,6.22,6.28,6.7,6.28,6.7h17.62a3.08,3.08,0,0,0,0-6.16Zm-24.54-27.27a24.15,24.15,0,0,1-2.6,7.91,17.31,17.31,0,0,1-5.54,6.11q-3.56,2.44-9.41,2.45c-3.91,0-7-.82-9.41-2.45a16.52,16.52,0,0,1-5.45-6.11,25,25,0,0,1-2.54-7.91,49,49,0,0,1,0-15.66,25.05,25.05,0,0,1,2.54-7.9,16.62,16.62,0,0,1,5.45-6.12,16.4,16.4,0,0,1,9.41-2.45c4.11,0,7.38.72,9.81,2.12a13.86,13.86,0,0,1,5.45,5.64,23.58,23.58,0,0,1,2.38,7.82,70.28,70.28,0,0,1,.55,8.72A52.25,52.25,0,0,1,1096.06,309.56Z"/><path class="cls-5" d="M851.66,247.14c-13.94-12.72-37.75-13.72-46.18-13.45H786.3V343.1h19.5c8.74,0,32.61-1.65,46.36-14.55,10.28-9.65,15.49-23.15,15.49-40.12C867.65,270.71,862.27,256.82,851.66,247.14ZM839,313.21c-9,8.51-27.94,9.28-33.52,9.22V254.8c4.9-.24,24-.14,33.16,8.22,6.08,5.54,9,13.93,9,25.64C847.68,299.66,844.84,307.69,839,313.21Z"/><path class="cls-6" d="M1318.67,312.21l-.83-34h-.24c-.71,4.29-1.43,7.4-2,9.73l-5.73,24.29h-11.53l-5.48-24.29c-.54-2.33-1.26-5.44-2-9.73h-.24l-.54,34h-7.16l1.56-40.28h13.43s4.41,20.29,6.73,33.29h.17c2.7-13,8-33.29,8-33.29H1326l1.55,40.28Z"/><path class="cls-6" d="M1336.63,312.21V288.57l-3.4-.71V283h11.16v29.24ZM1336.4,271h7.88v7.09h-7.88Z"/><path class="cls-6" d="M1369.63,312.21V294.83c0-4.4-1.67-6.5-5.25-6.5a9.35,9.35,0,0,0-5.12,1.8v22.08h-7.82V283h5.37l1.18,3.34a12.17,12.17,0,0,1,9.25-3.94c7.4,0,10.32,4.35,10.32,11.77v18.07Z"/><path class="cls-6" d="M1386.33,312.21V288.57l-3.39-.71V283h11.16v29.24ZM1386.1,271H1394v7.09h-7.88Z"/><path class="cls-6" d="M1407.94,290.66c0,4.54,12.66,3.18,12.66,12.72,0,5.31-3.95,9.42-11.53,9.42a18.46,18.46,0,0,1-8.76-2.15l1.6-5.43a13.67,13.67,0,0,0,6.92,2c2.57,0,4.3-1.44,4.3-3.23,0-5.25-12.48-3.52-12.48-13.49,0-4.29,3.29-8.17,11.15-8.17a23.66,23.66,0,0,1,8.26,1.43l-1.07,5.68a17.26,17.26,0,0,0-7-1.5c-2.69,0-4,1-4,2.68"/><path class="cls-6" d="M1437.53,312.8c-5.18,0-8.58-2.44-8.58-9.79V288.52h-4.37V283H1429v-5.08l7.7-2.51V283h7.81v5.55h-7.81v14.32c0,2,1,3.34,3.1,3.34a10.57,10.57,0,0,0,4.48-1.08l1.18,5.74a16.78,16.78,0,0,1-7.88,2"/><path class="cls-6" d="M1455.62,299.67c0,4.65,2.62,7.22,7.52,7.22a19.67,19.67,0,0,0,8.59-2.44l1.48,5.49a23.81,23.81,0,0,1-11,2.86c-9,0-14.38-5.62-14.38-15.28,0-9,4.35-15.15,13.72-15.15,8.83,0,12.3,6.57,12.3,13.9v3.4Zm5.48-11.58c-3.87,0-5.48,3.53-5.48,7h10.68c0-3.76-1.13-7-5.2-7"/><path class="cls-6" d="M1496.31,289.48a12.6,12.6,0,0,0-3.63-.49,8.45,8.45,0,0,0-5.26,2v21.24h-7.76V283h5.44l.83,3.93h.18a7.81,7.81,0,0,1,7-4.46,12.77,12.77,0,0,1,3.4.41Z"/><path class="cls-6" d="M1503.4,312.21V288.57l-3.39-.71V283h11.16v29.24Zm-.23-41.17h7.88v7.09h-7.88Z"/><path class="cls-6" d="M1544.53,297.52c0,10-5,15.28-13.73,15.28s-13.73-5.25-13.73-15.28c0-8.59,4.79-15.15,13.73-15.15s13.73,6.56,13.73,15.15m-8,0c0-7-2.09-9.48-5.73-9.48s-5.67,2.5-5.67,9.48c0,6.8,1.85,9.55,5.67,9.55s5.73-2.56,5.73-9.55"/><path class="cls-6" d="M1582.42,285.23a18,18,0,0,1-.72-5.38V271h7.76v41.18h-6.33l-.88-3.22a9.55,9.55,0,0,1-7.77,3.81c-6.63,0-11.93-4.76-11.93-15.22,0-9.66,5.48-15.21,12.58-15.21a9.53,9.53,0,0,1,7.29,2.86m-.72,4.42a10.37,10.37,0,0,0-5.31-1.44c-3.7,0-6,2.52-6,9.31,0,7,2.2,9.61,5.91,9.61a7.74,7.74,0,0,0,5.42-2.5Z"/><path class="cls-6" d="M1603.18,299.67c0,4.65,2.63,7.22,7.53,7.22a19.62,19.62,0,0,0,8.58-2.44l1.5,5.49a24,24,0,0,1-11,2.86c-9,0-14.38-5.62-14.38-15.28,0-9,4.36-15.15,13.73-15.15,8.83,0,12.29,6.57,12.29,13.9v3.4Zm5.5-11.58c-3.88,0-5.5,3.53-5.5,7h10.68c0-3.76-1.13-7-5.18-7"/><path class="cls-6" d="M1654.08,312.8a22.14,22.14,0,0,1-13.12-4.29l3-6.16a17.23,17.23,0,0,0,10.27,3.89c3.69,0,6.19-2.27,6.19-5.31,0-8.54-18.62-4.3-18.62-18.49,0-6.09,4.78-11.1,14.21-11.1a25.54,25.54,0,0,1,12,2.73l-2.65,6.28a19.43,19.43,0,0,0-9.48-2.22c-3.64,0-6,1.19-6,4.18,0,7.22,18.74,4.41,18.74,18.14,0,6.39-5.31,12.35-14.51,12.35"/><path class="cls-6" d="M1692.58,312.21l-1.08-3.46a10.52,10.52,0,0,1-8.53,4.05c-5.85,0-9.78-3.76-9.78-9.38,0-5.42,4-8.64,11-8.64h6.15v-1.49c0-3.76-2.14-5-5.14-5a21.08,21.08,0,0,0-8.75,2l-2-5.55a29.56,29.56,0,0,1,11.52-2.38c8.29,0,11.88,3.82,11.88,11.29v18.55Zm-2.22-12.77h-4.83c-3.22,0-4.7,1.55-4.7,3.75,0,2.68,1.42,4.29,4.35,4.29a8.72,8.72,0,0,0,5.18-2Z"/><path class="cls-6" d="M1704.74,304.45V271h7.7v33c0,2.46,1.5,2.82,4.71,2.82v5.49a25.32,25.32,0,0,1-4.28.46c-6,0-8.13-3.15-8.13-8.34"/><path class="cls-6" d="M1742.63,312.21l-1.19-3.58a11.49,11.49,0,0,1-9.13,4.17c-7.28,0-10.62-4.05-10.62-12.11V283h7.76v17.77c0,4.48,1.61,6.1,5.14,6.1a9.38,9.38,0,0,0,5.25-1.74V283h7.92v29.24Z"/><path class="cls-6" d="M1773.19,285.23a17.68,17.68,0,0,1-.73-5.38V271h7.77v41.18h-6.32L1773,309a9.44,9.44,0,0,1-7.74,3.81c-6.62,0-11.94-4.76-11.94-15.22,0-9.66,5.5-15.21,12.59-15.21a9.53,9.53,0,0,1,7.29,2.86m-.73,4.42a10.33,10.33,0,0,0-5.3-1.44c-3.7,0-6,2.52-6,9.31,0,7,2.21,9.61,5.91,9.61a7.72,7.72,0,0,0,5.42-2.5Z"/><rect class="cls-6" x="1219.61" y="182.3" width="7.7" height="210.5"/><rect class="cls-7" x="394.67" y="26.42" width="335.63" height="63.56"/><rect class="cls-8" x="730.31" y="26.42" width="483.61" height="63.56"/></svg>