<svg id="Capa_1" data-name="Capa 1" xmlns="http://www.w3.org/2000/svg" viewBox="0 0 1270.1 450.39"><defs><style>.cls-1{fill:#f53945;}.cls-2{fill:#cfd9da;}.cls-3{fill:#a9bec6;}.cls-4{fill:#628390;}.cls-5{fill:#afc1c6;}</style></defs><path class="cls-1" d="M310.44,194.69H330.3V174.83H310.44Z"/><path class="cls-1" d="M310.49,164.8h19.86V144.94H310.49Z"/><path class="cls-1" d="M310.44,224.56H330.3V204.7H310.44Z"/><path class="cls-1" d="M280.68,194.6h19.86V174.74H280.68Z"/><path class="cls-1" d="M340.3,194.51h19.86V174.65H340.3Z"/><path class="cls-2" d="M221.2,194.61h19.86V174.75H221.2Z"/><path class="cls-2" d="M280.77,224.56h19.85V204.7H280.77Z"/><path class="cls-2" d="M251,224.47h19.86V204.62H251Z"/><path class="cls-2" d="M280.71,164.91h19.86V145.05H280.71Z"/><path class="cls-2" d="M250.92,165h19.86V145.12H250.92Z"/><path class="cls-2" d="M340.18,224.71H360V204.86H340.18Z"/><path class="cls-2" d="M310.73,254.33h19.86V234.47H310.73Z"/><path class="cls-2" d="M250.93,254.33h19.86V234.47H250.93Z"/><path class="cls-2" d="M310.58,284.55h19.86V264.69H310.58Z"/><path class="cls-2" d="M280.76,284.39h19.85V264.53H280.76Z"/><path class="cls-2" d="M340.4,284.39h19.86V264.53H340.4Z"/><path class="cls-2" d="M370.26,164.91h19.86V145.05H370.26Z"/><path class="cls-2" d="M280.6,135h19.86V115.17H280.6Z"/><path class="cls-2" d="M340.28,135.14h19.86V115.29H340.28Z"/><path class="cls-3" d="M118.21,200.29a184.31,184.31,0,0,1,26.53-90.07A8.54,8.54,0,0,1,159.37,119,167.21,167.21,0,0,0,403.15,338.89a168.64,168.64,0,0,0,23.5-21.45,8.55,8.55,0,0,1,12.06-.6,9,9,0,0,1,1.08,1.18l0,0a8.54,8.54,0,0,1-.5,10.86,185.49,185.49,0,0,1-25.88,23.63A184.47,184.47,0,0,1,118.21,200.29Z"/><path class="cls-2" d="M367.32,66.39a151,151,0,0,1,73.27,74,8.25,8.25,0,0,1,.26,6.38,8.42,8.42,0,0,1-15.57.63A134.37,134.37,0,0,0,262.52,75.19c-70.78,22.3-110.23,98-87.93,168.82a134.41,134.41,0,0,0,157.09,91.05l.45-.06a8.83,8.83,0,0,1,9.23,6.58c1.53,5.45-2.63,8.88-5.79,9.86a151.17,151.17,0,0,1-177-102.37c-25.09-79.64,19.29-164.85,98.93-189.94A151.28,151.28,0,0,1,367.32,66.39Z"/><path class="cls-4" d="M596.74,173.86V283.92H577.45V173.86Z"/><path class="cls-4" d="M596.74,285.29H577.45a1.37,1.37,0,0,1-1.37-1.37V173.86a1.37,1.37,0,0,1,1.37-1.37h19.29a1.37,1.37,0,0,1,1.37,1.37V283.92A1.37,1.37,0,0,1,596.74,285.29Zm-17.93-2.74h16.57V175.22H578.81Z"/><path class="cls-4" d="M439.36,285.31c-.9,0-1.8,0-2.72,0l-40.79-1.39.79-24.87,40.8,1.38c7.29.28,12.84-.8,16.52-3.13,2.23-1.41,3.35-3.11,3.42-5.19,0-1,.13-4.2-5.63-6.52-2.69-1.07-7.78-2.18-15.13-3.29-13.9-2.09-23.21-4.67-28.49-7.86-8.91-5.42-13.22-14.61-12.81-27.33.35-11,5.39-19.66,15-25.69,7.8-4.84,17.89-7.07,29.88-6.68l40.11,1.36-.8,24.87-40.1-1.36c-7.31-.28-12.84.8-16.51,3.13-2.28,1.39-3.36,3-3.43,5.19-.06,1.79.46,4.41,5.62,6.41,2.66,1.07,7.75,2.17,15.14,3.3,13.88,2.15,23.2,4.76,28.48,8,8.91,5.41,13.23,14.61,12.82,27.32-.35,11-5.4,19.64-15,25.6C459.35,283,450.21,285.31,439.36,285.31Z"/><path class="cls-4" d="M565.76,277h-.36c-2.67,0-4.71-3.46-4.72-7V243.75a67.41,67.41,0,0,0-2.06-17.48,33.2,33.2,0,0,0-6.56-13.05A29.27,29.27,0,0,0,540.59,205q-7-2.88-16.92-2.87a42.27,42.27,0,0,0-18.82,4.65,38.05,38.05,0,0,0-6.87,4.82,29.48,29.48,0,0,0-6,7.38,40.79,40.79,0,0,0-4.2,10.49,56.5,56.5,0,0,0-1.58,14.13,59.25,59.25,0,0,0,1.5,14.14,41,41,0,0,0,4,10.4,29.68,29.68,0,0,0,5.54,7.23,32.75,32.75,0,0,0,6.4,4.74,36.61,36.61,0,0,0,17.4,4.35,33,33,0,0,0,9.48-2,29.68,29.68,0,0,0,8.07-5,20.16,20.16,0,0,0,3.32-3.64v2.7c0,5.92,6.28,6.38,6.28,6.38h17.62a2.93,2.93,0,1,0,0-5.86Zm-24.53-26a22,22,0,0,1-2.61,7.53,16.67,16.67,0,0,1-5.54,5.83,20.15,20.15,0,0,1-18.81,0,15.92,15.92,0,0,1-5.46-5.83,23,23,0,0,1-2.53-7.53,43.8,43.8,0,0,1,0-14.92,23,23,0,0,1,2.53-7.53,16.07,16.07,0,0,1,5.46-5.83,16.93,16.93,0,0,1,9.4-2.33c4.11,0,7.38.68,9.81,2a13.52,13.52,0,0,1,5.46,5.37,21.43,21.43,0,0,1,2.37,7.45,62,62,0,0,1,.55,8.31A48.63,48.63,0,0,1,541.23,251.05Z"/><path class="cls-4" d="M521.07,285.81a38.27,38.27,0,0,1-18.14-4.51,35.07,35.07,0,0,1-6.68-4.94,31.32,31.32,0,0,1-5.79-7.55,43.28,43.28,0,0,1-4.1-10.76,61.12,61.12,0,0,1-1.54-14.46,57.93,57.93,0,0,1,1.63-14.48,42,42,0,0,1,4.35-10.83,30.81,30.81,0,0,1,6.28-7.73,40.22,40.22,0,0,1,7.12-5,43.82,43.82,0,0,1,19.43-4.82h0a45.84,45.84,0,0,1,17.48,3,30.89,30.89,0,0,1,12,8.61,34.81,34.81,0,0,1,6.83,13.58,69.17,69.17,0,0,1,2.11,17.83V270c0,2.9,1.63,5.63,3.34,5.63h.37a4.3,4.3,0,1,1,0,8.6H548.14c-2.55-.18-7.07-1.84-7.6-6.78-.37.37-.74.71-1.12,1A31.41,31.41,0,0,1,531,283.7,34.27,34.27,0,0,1,521.07,285.81Zm2.6-82.33a41.2,41.2,0,0,0-18.18,4.5,36.55,36.55,0,0,0-6.61,4.64,28,28,0,0,0-5.73,7,39,39,0,0,0-4,10.13,54.78,54.78,0,0,0-1.54,13.79A58.34,58.34,0,0,0,489,257.4a39.93,39.93,0,0,0,3.82,10.06,28.42,28.42,0,0,0,5.28,6.9,32.12,32.12,0,0,0,6.14,4.55A35.38,35.38,0,0,0,521,283.08a31.54,31.54,0,0,0,9-1.94,28.38,28.38,0,0,0,7.66-4.73,18.83,18.83,0,0,0,3.1-3.39,1.32,1.32,0,0,1,1.52-.5,1.36,1.36,0,0,1,1,1.3v2.7c0,4.48,4.5,5,5,5h17.51a1.6,1.6,0,0,0,1.62-1.57,1.62,1.62,0,0,0-1.62-1.57h-.37c-3.63,0-6.07-4.32-6.08-8.36V243.75a67,67,0,0,0-2-17.13A32.13,32.13,0,0,0,551,214.1a28.3,28.3,0,0,0-10.95-7.85A43.34,43.34,0,0,0,523.67,203.48Zm0,64.62a18.33,18.33,0,0,1-10.15-2.55,17.4,17.4,0,0,1-5.91-6.32,24.53,24.53,0,0,1-2.68-8,44.9,44.9,0,0,1,0-15.34,24.37,24.37,0,0,1,2.68-8,17.48,17.48,0,0,1,5.91-6.32,18.34,18.34,0,0,1,10.15-2.56c4.32,0,7.84.74,10.48,2.19a15,15,0,0,1,6,5.91,23.16,23.16,0,0,1,2.53,7.92,65.82,65.82,0,0,1,.56,8.5,49.72,49.72,0,0,1-.65,7.67h0a23.86,23.86,0,0,1-2.77,8,18.14,18.14,0,0,1-6,6.29A18.34,18.34,0,0,1,523.67,268.1Zm0-46.29a15.77,15.77,0,0,0-8.66,2.11,14.86,14.86,0,0,0-5,5.33,21.75,21.75,0,0,0-2.38,7.09,42.7,42.7,0,0,0,0,14.5,21.6,21.6,0,0,0,2.38,7.09,14.78,14.78,0,0,0,5,5.33,18.83,18.83,0,0,0,17.32,0,15.41,15.41,0,0,0,5.1-5.35,21.08,21.08,0,0,0,2.45-7.07h0a46.73,46.73,0,0,0,.61-7.25,63.53,63.53,0,0,0-.53-8.13,20.08,20.08,0,0,0-2.23-7,12.13,12.13,0,0,0-4.91-4.82C530.6,222.43,527.52,221.81,523.67,221.81Z"/><path class="cls-4" d="M607.35,204.75a30.66,30.66,0,0,1,4.6-1,42.84,42.84,0,0,1,6.5-.48,31.5,31.5,0,0,1,5.77.48,8.79,8.79,0,0,1,7,5.88,18.72,18.72,0,0,1,.95,6.52v34.61q0,6.61,2.92,9.43t8.47,2.81a19.32,19.32,0,0,0,5.48-.64,17.44,17.44,0,0,0,3.28-1.29V204.75a30.86,30.86,0,0,1,4.61-1,42.9,42.9,0,0,1,6.49-.48,31.53,31.53,0,0,1,5.78.48,9.42,9.42,0,0,1,4.31,1.93,9.3,9.3,0,0,1,2.7,3.95,18.75,18.75,0,0,1,.94,6.52v48.94q0,8.06-6.13,12.08a38.17,38.17,0,0,1-12.2,5.39,60.54,60.54,0,0,1-15.41,1.86,52.22,52.22,0,0,1-14.53-1.93,31.56,31.56,0,0,1-11.47-6A26.55,26.55,0,0,1,610,266.17a40.24,40.24,0,0,1-2.62-15.38Z"/><path class="cls-4" d="M682.66,242.75a54.31,54.31,0,0,1,2.83-18.44,35.56,35.56,0,0,1,7.88-13,31.72,31.72,0,0,1,11.77-7.65,41.48,41.48,0,0,1,14.53-2.49,27.3,27.3,0,0,1,5.53.56,20.17,20.17,0,0,1,4.4,1.37V177.06a33.6,33.6,0,0,1,4.52-1.05,35.57,35.57,0,0,1,6.39-.56,28.87,28.87,0,0,1,5.6.48,8.38,8.38,0,0,1,6.75,5.87,21.28,21.28,0,0,1,.85,6.53v76.31a14.16,14.16,0,0,1-6.25,12.07,40.32,40.32,0,0,1-10.63,5.4,48.94,48.94,0,0,1-31.55-.56,33.05,33.05,0,0,1-12.34-8.37,36.53,36.53,0,0,1-7.65-13.13A53.06,53.06,0,0,1,682.66,242.75Zm40.27-20.13q-7.65,0-11.77,5t-4.11,15.14q0,10,3.82,15.05t11.06,5.07a11.49,11.49,0,0,0,4.61-.88,10.36,10.36,0,0,0,3.2-2V224.55A11.81,11.81,0,0,0,722.93,222.62Z"/><path class="cls-5" d="M872.42,183.69c0-2.39,0-4.19.09-5.38a3.56,3.56,0,0,1,1-2.61,4.28,4.28,0,0,1,2.84-.9c1.32-.06,3.25-.08,5.77-.08s4.46,0,5.77.08a4.31,4.31,0,0,1,2.85.9,3.64,3.64,0,0,1,.95,2.61c.06,1.19.08,3,.08,5.38s0,4.19-.08,5.38a3.6,3.6,0,0,1-.95,2.6,4.31,4.31,0,0,1-2.85.9c-1.31.06-3.24.08-5.77.08s-4.45,0-5.77-.08a4.28,4.28,0,0,1-2.84-.9,3.52,3.52,0,0,1-1-2.6C872.45,187.88,872.42,186.07,872.42,183.69Zm19.3,18.43v82.67h-19.3V202.12Z"/><path class="cls-5" d="M933.38,200q10,0,16.92,2.93a28.69,28.69,0,0,1,11.47,8.56,35.73,35.73,0,0,1,6.56,13.7,74.5,74.5,0,0,1,2.06,18.34v29a68.72,68.72,0,0,1-.56,9.06,63.26,63.26,0,0,1-1.5,7.74,29.35,29.35,0,0,1-4.67,9.86,30.3,30.3,0,0,1-8.3,7.76,41.05,41.05,0,0,1-12,5.05,64.51,64.51,0,0,1-16,1.79l-21-.16V295.25h17.09q10.76,0,16.44-2.29t8.31-5.46a12.56,12.56,0,0,0,3-6.44,46.21,46.21,0,0,0,.4-5.06v-2.63l3.48-4.73a26.46,26.46,0,0,1-6.81,10.44,29.59,29.59,0,0,1-8.06,5.21,31.64,31.64,0,0,1-9.49,2.12,35.14,35.14,0,0,1-17.39-4.56,33,33,0,0,1-6.41-5,30.93,30.93,0,0,1-5.53-7.58,44.13,44.13,0,0,1-4-10.92,65.13,65.13,0,0,1-1.51-14.84,61.63,61.63,0,0,1,1.59-14.84,43.89,43.89,0,0,1,4.19-11,30.69,30.69,0,0,1,6-7.75,38,38,0,0,1,6.88-5.06A40.7,40.7,0,0,1,933.38,200Zm18.19,43.53a68.44,68.44,0,0,0-.56-8.73,23.41,23.41,0,0,0-2.37-7.82,13.84,13.84,0,0,0-5.45-5.63q-3.65-2.11-9.81-2.12c-3.91,0-7,.82-9.41,2.45a16.54,16.54,0,0,0-5.45,6.12,24.89,24.89,0,0,0-2.54,7.9,48.91,48.91,0,0,0,0,15.65,25,25,0,0,0,2.54,7.92,16.59,16.59,0,0,0,5.45,6.11c2.37,1.63,5.5,2.44,9.41,2.44s7-.81,9.41-2.44a17.28,17.28,0,0,0,5.53-6.11,23.91,23.91,0,0,0,2.61-7.92A52.12,52.12,0,0,0,951.57,243.53Z"/><path class="cls-5" d="M974.68,183.69c0-2.39,0-4.19.08-5.38a3.6,3.6,0,0,1,1-2.61,4.3,4.3,0,0,1,2.84-.9c1.32-.06,3.25-.08,5.78-.08s4.45,0,5.77.08a4.28,4.28,0,0,1,2.84.9,3.6,3.6,0,0,1,.95,2.61c.06,1.19.08,3,.08,5.38s0,4.19-.08,5.38a3.56,3.56,0,0,1-.95,2.6,4.28,4.28,0,0,1-2.84.9c-1.32.06-3.25.08-5.77.08s-4.46,0-5.78-.08a4.3,4.3,0,0,1-2.84-.9,3.56,3.56,0,0,1-1-2.6C974.7,187.88,974.68,186.07,974.68,183.69ZM994,202.12v82.67H974.68V202.12Z"/><path class="cls-5" d="M1017.94,221.52v36.36a9.44,9.44,0,0,0,1.74,3.59,11.39,11.39,0,0,0,3.08,2.44,10.23,10.23,0,0,0,5.15,1.15h12v19.73h-19.29a26.93,26.93,0,0,1-11.07-3.59,25,25,0,0,1-7.51-7.26c-2.28-3.21-3.41-7.63-3.41-13.29V174.71h19.3v27.41h18.18v19.4Z"/><path class="cls-5" d="M1144.3,174.72V284.79H1125V174.72Z"/><path class="cls-5" d="M1120.6,278.63h-.37c-2.66,0-4.71-3.63-4.71-7.35V243.69a74.56,74.56,0,0,0-2.06-18.34,35.73,35.73,0,0,0-6.56-13.7,29.44,29.44,0,0,0-11.47-8.64q-7-3-16.92-3a40.7,40.7,0,0,0-18.82,4.88,38,38,0,0,0-6.88,5.06,30.69,30.69,0,0,0-6,7.75,44.28,44.28,0,0,0-4.19,11,61.66,61.66,0,0,0-1.58,14.84,65.17,65.17,0,0,0,1.5,14.84,44.53,44.53,0,0,0,4,10.92,31.18,31.18,0,0,0,5.53,7.59,33.37,33.37,0,0,0,6.41,5,35.14,35.14,0,0,0,17.39,4.56,31.64,31.64,0,0,0,9.49-2.12,29.59,29.59,0,0,0,8.06-5.21,20.48,20.48,0,0,0,3.33-3.82v2.83c0,6.22,6.28,6.7,6.28,6.7h17.62a3.08,3.08,0,0,0,0-6.15Zm-24.54-27.27a24.15,24.15,0,0,1-2.6,7.91,17.4,17.4,0,0,1-5.54,6.11q-3.56,2.44-9.41,2.44c-3.91,0-7-.81-9.41-2.44a16.59,16.59,0,0,1-5.45-6.11,25,25,0,0,1-2.54-7.91,49,49,0,0,1,0-15.66,25,25,0,0,1,2.54-7.9,16.54,16.54,0,0,1,5.45-6.12c2.38-1.63,5.5-2.45,9.41-2.45q6.16,0,9.81,2.12a13.84,13.84,0,0,1,5.45,5.63,23.65,23.65,0,0,1,2.38,7.82,70.44,70.44,0,0,1,.55,8.73A52.35,52.35,0,0,1,1096.06,251.36Z"/><path class="cls-5" d="M851.66,188.94c-13.94-12.72-37.75-13.73-46.18-13.46H786.3V284.9h19.5c8.74,0,32.61-1.65,46.36-14.56,10.28-9.64,15.49-23.14,15.49-40.12C867.65,212.51,862.27,198.62,851.66,188.94ZM839,255c-9,8.5-27.94,9.28-33.52,9.22V196.6c4.9-.25,24-.14,33.16,8.22,6.08,5.54,9,13.93,9,25.63C847.68,241.45,844.84,249.48,839,255Z"/></svg>