<?xml version="1.0" encoding="utf-8"?>
<!-- Generator: Adobe Illustrator 16.0.3, SVG Export Plug-In . SVG Version: 6.00 Build 0)  -->
<!DOCTYPE svg PUBLIC "-//W3C//DTD SVG 1.1//EN" "http://www.w3.org/Graphics/SVG/1.1/DTD/svg11.dtd">
<svg version="1.1" id="Capa_1" xmlns="http://www.w3.org/2000/svg" xmlns:xlink="http://www.w3.org/1999/xlink" x="0px" y="0px"
	 width="710.965px" height="403.479px" viewBox="0 0 710.965 403.479" enable-background="new 0 0 710.965 403.479"
	 xml:space="preserve">
<g>
	<rect x="207.784" y="138.506" fill="#F53945" width="19.15" height="19.148"/>
	<rect x="207.832" y="109.683" fill="#F53945" width="19.15" height="19.149"/>
	<rect x="207.784" y="167.312" fill="#F53945" width="19.15" height="19.149"/>
	<rect x="179.082" y="138.422" fill="#F53945" width="19.147" height="19.148"/>
	<rect x="236.573" y="138.336" fill="#F53945" width="19.147" height="19.149"/>
	<rect x="121.725" y="138.428" fill="#CFD9DA" width="19.15" height="19.148"/>
	<rect x="179.166" y="167.312" fill="#CFD9DA" width="19.149" height="19.149"/>
	<rect x="150.462" y="167.228" fill="#CFD9DA" width="19.15" height="19.148"/>
	<rect x="179.111" y="109.792" fill="#CFD9DA" width="19.147" height="19.148"/>
	<rect x="150.389" y="109.854" fill="#CFD9DA" width="19.15" height="19.149"/>
	<rect x="236.459" y="167.459" fill="#CFD9DA" width="19.147" height="19.148"/>
	<rect x="208.062" y="196.014" fill="#CFD9DA" width="19.15" height="19.149"/>
	<rect x="150.397" y="196.014" fill="#CFD9DA" width="19.15" height="19.149"/>
	<rect x="207.912" y="225.15" fill="#CFD9DA" width="19.149" height="19.15"/>
	<rect x="179.156" y="225.002" fill="#CFD9DA" width="19.147" height="19.15"/>
	<rect x="236.67" y="225.002" fill="#CFD9DA" width="19.148" height="19.15"/>
	<rect x="265.458" y="109.792" fill="#CFD9DA" width="19.149" height="19.148"/>
	<rect x="179.003" y="80.982" fill="#CFD9DA" width="19.148" height="19.148"/>
	<rect x="236.555" y="81.089" fill="#CFD9DA" width="19.148" height="19.149"/>
	<path fill="#A9BEC6" d="M19.457,158.606c0.836-29.954,9.313-59.846,25.578-86.848c1.137-1.882,2.937-3.212,5.073-3.741
		c2.136-0.527,4.347-0.195,6.232,0.938c3.884,2.349,5.135,7.424,2.803,11.306c-34.137,56.65-30.47,127.404,9.336,180.241
		c25.868,34.332,63.617,56.545,106.304,62.547c42.683,6.006,85.1-4.936,119.429-30.799c8.207-6.18,15.827-13.139,22.657-20.686
		c3.046-3.363,8.265-3.623,11.628-0.576c0.408,0.373,0.747,0.744,1.046,1.143l0.013,0.014c2.372,3.146,2.163,7.555-0.479,10.475
		c-7.532,8.318-15.927,15.982-24.956,22.783c-37.842,28.508-84.589,40.566-131.633,33.949
		c-47.044-6.615-88.65-31.098-117.159-68.939C30.425,237.357,18.359,197.931,19.457,158.606"/>
	<path fill="#CFD9DA" d="M259.661,29.487c25.047,11.738,46.876,30.649,62.211,55.52c3.12,5.059,5.958,10.373,8.438,15.796
		c0.905,1.919,0.998,4.115,0.256,6.151c-0.753,2.058-2.263,3.696-4.25,4.608c-1.975,0.907-4.182,0.988-6.217,0.232
		c-2.047-0.766-3.649-2.26-4.551-4.231c-2.201-4.808-4.726-9.531-7.497-14.032c-31.207-50.602-92.663-73.448-149.444-55.555
		C90.353,59.48,52.318,132.507,73.822,200.76c17.992,57.097,72.227,94.335,131.89,90.56c6.55-0.416,13.139-1.346,19.579-2.76
		l0.435-0.064c2.406-0.203,7.368,0.863,8.905,6.354c1.468,5.246-2.535,8.555-5.583,9.502c-7.51,1.662-14.928,2.705-22.313,3.174
		c-67.131,4.254-128.156-37.643-148.4-101.887C34.138,128.845,76.93,46.685,153.726,22.487
		C189.709,11.148,227.361,14.354,259.661,29.487"/>
	<path fill="#6C8F9A" d="M379.754,230.238c-0.86,0-1.729-0.016-2.609-0.043l-39.116-1.332l0.753-23.536l39.12,1.329
		c0.719,0.028,1.421,0.04,2.105,0.04c6.009,0,10.701-1.041,13.945-3.095c2.225-1.408,3.337-3.104,3.4-5.186
		c0.036-1.039,0.144-4.204-5.567-6.498c-2.614-1.041-7.538-2.114-14.638-3.19c-13.366-2.012-22.324-4.483-27.386-7.553
		c-8.52-5.174-12.642-13.971-12.253-26.147c0.338-10.543,5.164-18.817,14.344-24.594c6.889-4.28,15.686-6.452,26.145-6.452
		c0.838,0,1.686,0.014,2.545,0.042l38.452,1.308l-0.752,23.536l-38.453-1.308c-0.722-0.028-1.425-0.04-2.111-0.04
		c-6.009,0-10.695,1.041-13.927,3.095c-2.264,1.375-3.35,3.025-3.417,5.189c-0.058,1.795,0.457,4.41,5.567,6.389
		c2.569,1.034,7.497,2.108,14.645,3.193c13.353,2.072,22.308,4.576,27.379,7.656c8.518,5.179,12.643,13.979,12.256,26.151
		c-0.342,10.554-5.17,18.797-14.353,24.499C398.955,228.035,390.183,230.238,379.754,230.238"/>
	<path fill="#6C8F9A" d="M377.998,124.204c0.835,0,1.681,0.014,2.535,0.042l38.231,1.3l-0.738,23.09l-38.228-1.299
		c-0.725-0.028-1.432-0.041-2.12-0.041c-6.053,0-10.778,1.053-14.04,3.125c-2.336,1.421-3.457,3.129-3.527,5.375
		c-0.06,1.863,0.468,4.574,5.704,6.602c2.589,1.041,7.533,2.12,14.696,3.207c13.324,2.068,22.253,4.562,27.297,7.625
		c8.445,5.136,12.532,13.868,12.149,25.954c-0.339,10.476-5.132,18.658-14.25,24.319c-6.837,4.32-15.569,6.512-25.953,6.512
		c-0.859,0-1.724-0.016-2.602-0.043l-38.895-1.324l0.738-23.091l38.895,1.321c0.723,0.027,1.428,0.041,2.115,0.041
		c6.052,0,10.784-1.053,14.064-3.13c2.291-1.45,3.438-3.206,3.504-5.365c0.037-1.079,0.149-4.361-5.709-6.714
		c-2.631-1.047-7.571-2.125-14.686-3.203c-13.336-2.007-22.267-4.468-27.303-7.522c-8.446-5.13-12.532-13.861-12.146-25.951
		c0.336-10.464,5.125-18.678,14.237-24.411C358.824,126.363,367.582,124.204,377.998,124.204 M377.998,123.759
		c-10.445,0-19.305,2.162-26.264,6.486c-9.245,5.817-14.107,14.151-14.447,24.775c-0.392,12.265,3.769,21.127,12.36,26.345
		c5.084,3.084,14.068,5.565,27.467,7.582c7.086,1.074,11.995,2.145,14.588,3.176c5.559,2.234,5.463,5.282,5.429,6.285
		c-0.063,2.003-1.142,3.641-3.298,5.005c-3.183,2.015-7.823,3.061-13.826,3.061c-0.682,0-1.382-0.013-2.099-0.04l-39.342-1.337
		l-0.768,23.981l39.339,1.34c0.883,0.027,1.754,0.043,2.617,0.043c10.469,0,19.273-2.209,26.191-6.578
		c9.252-5.748,14.113-14.054,14.457-24.685c0.389-12.257-3.771-21.123-12.363-26.348c-5.096-3.094-14.076-5.608-27.461-7.685
		c-7.127-1.081-12.033-2.148-14.598-3.179c-4.979-1.929-5.48-4.449-5.426-6.176c0.065-2.084,1.111-3.669,3.314-5.009
		c3.171-2.014,7.797-3.06,13.809-3.06c0.683,0,1.383,0.013,2.104,0.04l38.675,1.315l0.767-23.98l-38.675-1.315
		C379.687,123.773,378.838,123.759,377.998,123.759"/>
	<path fill="#6C8F9A" d="M501.64,223.047h-0.352c-2.568,0-4.54-3.335-4.546-6.748v-25.344c0-6.291-0.658-11.911-1.983-16.855
		c-1.316-4.942-3.433-9.139-6.325-12.58c-2.9-3.449-6.584-6.091-11.06-7.938c-4.476-1.848-9.908-2.771-16.319-2.771
		c-6.812,0.2-12.862,1.694-18.146,4.489c-2.234,1.201-4.445,2.748-6.631,4.642c-2.188,1.902-4.115,4.274-5.793,7.122
		c-1.677,2.842-3.033,6.214-4.044,10.11c-1.02,3.896-1.528,8.438-1.528,13.628c0,5.197,0.485,9.739,1.449,13.635
		c0.965,3.896,2.234,7.238,3.817,10.033c1.577,2.802,3.354,5.12,5.338,6.967c1.983,1.849,4.037,3.373,6.177,4.576
		c4.875,2.693,10.464,4.086,16.773,4.188c3.151-0.201,6.2-0.848,9.147-1.949c2.54-0.992,5.134-2.594,7.775-4.789
		c1.161-0.964,2.22-2.158,3.206-3.512v2.604c0,5.714,6.053,6.152,6.053,6.152h16.156l-0.029-0.004h0.863
		c1.583,0,2.879-1.271,2.879-2.828C504.519,224.318,503.223,223.047,501.64,223.047 M477.985,197.992
		c-0.408,2.603-1.246,5.02-2.518,7.268c-1.269,2.249-3.048,4.12-5.336,5.613c-2.289,1.501-5.314,2.248-9.077,2.248
		s-6.78-0.747-9.069-2.248c-2.288-1.493-4.044-3.364-5.259-5.613c-1.223-2.248-2.038-4.665-2.445-7.268
		c-0.408-2.595-0.611-4.989-0.611-7.191c0-2.195,0.203-4.589,0.611-7.191c0.407-2.595,1.223-5.013,2.445-7.261
		c1.215-2.249,2.971-4.119,5.259-5.621c2.289-1.493,5.307-2.248,9.069-2.248c3.966,0,7.117,0.655,9.461,1.948
		c2.336,1.301,4.091,3.026,5.259,5.174c1.168,2.148,1.929,4.543,2.289,7.183c0.353,2.649,0.533,5.321,0.533,8.016
		C478.597,193.003,478.393,195.397,477.985,197.992"/>
	<path fill="#6C8F9A" d="M576.528,230.852c-5.021,0-9.715-0.623-13.953-1.854c-4.229-1.232-7.921-3.15-10.978-5.703
		c-3.06-2.558-5.455-5.899-7.119-9.929c-1.67-4.038-2.518-8.998-2.518-14.741v-44.238c0.947-0.294,2.374-0.587,4.247-0.873
		c2.008-0.307,4.105-0.463,6.234-0.463c2.034,0,3.893,0.155,5.523,0.461c1.596,0.3,2.959,0.911,4.052,1.816
		c1.088,0.896,1.943,2.146,2.542,3.715c0.597,1.568,0.899,3.656,0.899,6.206v33.376c0,4.288,0.97,7.399,2.888,9.246
		c1.91,1.841,4.71,2.775,8.323,2.775c2.19,0,3.94-0.205,5.35-0.626c1.372-0.417,2.45-0.842,3.208-1.265l0.113-0.063v-54.305
		c0.942-0.293,2.371-0.587,4.252-0.873c2.004-0.307,4.098-0.463,6.227-0.463c2.031,0,3.892,0.155,5.529,0.461
		c1.593,0.299,2.955,0.911,4.056,1.816c1.094,0.91,1.947,2.159,2.536,3.714c0.597,1.569,0.899,3.657,0.899,6.207v47.194
		c0,5.071-1.956,8.927-5.814,11.462c-3.271,2.262-7.205,3.998-11.693,5.168C586.812,230.252,581.831,230.852,576.528,230.852"/>
	<path fill="#6C8F9A" d="M652.097,230.852c-5.871,0-11.202-0.936-15.846-2.779c-4.645-1.844-8.619-4.539-11.812-8.016
		c-3.206-3.48-5.674-7.711-7.335-12.575c-1.675-4.88-2.524-10.471-2.524-16.616c0-6.765,0.916-12.72,2.724-17.7
		c1.804-4.969,4.341-9.146,7.542-12.417c3.193-3.274,6.984-5.737,11.268-7.322c4.284-1.59,8.972-2.397,13.933-2.397
		c1.793,0,3.571,0.183,5.286,0.543c1.703,0.356,3.115,0.793,4.195,1.3l0.315,0.148v-25.336c0.892-0.291,2.297-0.611,4.183-0.953
		c1.971-0.357,4.03-0.538,6.12-0.538c2.021,0,3.773,0.151,5.355,0.461c1.561,0.301,2.85,0.894,3.943,1.815
		c1.051,0.899,1.855,2.146,2.395,3.704c0.535,1.613,0.808,3.707,0.808,6.219v73.585c0,4.762-1.997,8.619-5.936,11.46
		c-2.583,1.934-6.01,3.674-10.188,5.176C662.361,230.098,657.507,230.852,652.097,230.852 M653.193,171.237
		c-4.973,0-8.851,1.646-11.521,4.895c-2.667,3.234-4.018,8.191-4.018,14.733c0,6.432,1.257,11.362,3.736,14.651
		c2.491,3.303,6.14,4.978,10.839,4.978c1.666,0,3.191-0.294,4.533-0.874c1.336-0.573,2.396-1.24,3.149-1.984l0.065-0.066v-34.366
		l-0.098-0.066C658.035,171.877,655.785,171.237,653.193,171.237"/>
	<path fill="#AFC1C6" d="M422.973,256.018c0-2.303,0.023-4.031,0.079-5.188c0.047-1.156,0.353-1.988,0.917-2.514
		c0.557-0.525,1.474-0.816,2.743-0.863c1.27-0.057,3.127-0.082,5.565-0.082c2.438,0,4.295,0.025,5.564,0.082
		c1.271,0.047,2.188,0.338,2.744,0.863c0.563,0.525,0.861,1.357,0.917,2.514c0.055,1.156,0.078,2.885,0.078,5.188
		c0,2.305-0.023,4.041-0.078,5.189c-0.056,1.156-0.354,1.996-0.917,2.514c-0.557,0.525-1.474,0.816-2.744,0.863
		c-1.27,0.057-3.127,0.082-5.564,0.082c-2.438,0-4.296-0.025-5.565-0.082c-1.27-0.047-2.187-0.338-2.743-0.863
		c-0.564-0.518-0.87-1.357-0.917-2.514C422.996,260.059,422.973,258.322,422.973,256.018 M441.581,353.506h-18.608v-79.717h18.608
		V353.506z"/>
	<path fill="#AFC1C6" d="M481.745,271.744c6.412,0,11.844,0.938,16.319,2.83c4.476,1.883,8.159,4.639,11.06,8.25
		c2.892,3.621,5.009,8.025,6.325,13.213c1.325,5.189,1.983,11.08,1.983,17.684v28.01c0,3.145-0.18,6.053-0.533,8.729
		c-0.36,2.674-0.838,5.164-1.45,7.467c-0.917,3.459-2.414,6.635-4.499,9.512c-2.085,2.887-4.75,5.375-8.003,7.475
		c-3.252,2.094-7.116,3.719-11.592,4.875c-4.476,1.146-9.61,1.729-15.402,1.729l-20.285-0.162v-17.762h16.476
		c6.913,0,12.196-0.736,15.856-2.207c3.661-1.463,6.334-3.217,8.011-5.262c1.678-2.045,2.642-4.121,2.893-6.215
		c0.251-2.1,0.384-3.717,0.384-4.873v-2.537l3.354-4.559c-1.73,4.396-3.918,7.76-6.56,10.063c-2.641,2.303-5.235,3.984-7.775,5.027
		c-2.947,1.154-5.996,1.834-9.146,2.045c-6.311-0.105-11.898-1.568-16.774-4.398c-2.14-1.26-4.193-2.859-6.176-4.799
		c-1.983-1.939-3.763-4.373-5.338-7.314c-1.584-2.934-2.854-6.441-3.817-10.529c-0.964-4.09-1.451-8.857-1.451-14.313
		c0-5.447,0.511-10.215,1.529-14.305c1.01-4.09,2.367-7.629,4.045-10.611c1.676-2.99,3.605-5.479,5.792-7.475
		c2.187-1.988,4.397-3.613,6.63-4.873C468.883,273.523,474.933,271.955,481.745,271.744 M499.287,313.721
		c0-2.828-0.18-5.633-0.533-8.414c-0.36-2.771-1.12-5.285-2.288-7.539c-1.168-2.256-2.924-4.064-5.26-5.432
		c-2.344-1.357-5.494-2.043-9.461-2.043c-3.762,0-6.779,0.791-9.068,2.359c-2.289,1.576-4.045,3.539-5.26,5.898
		c-1.223,2.359-2.038,4.898-2.445,7.621c-0.407,2.732-0.611,5.244-0.611,7.549c0,2.313,0.204,4.824,0.611,7.547
		c0.407,2.732,1.223,5.27,2.445,7.629c1.215,2.361,2.971,4.324,5.26,5.893c2.289,1.576,5.307,2.359,9.068,2.359
		c3.763,0,6.788-0.783,9.077-2.359c2.288-1.568,4.067-3.531,5.338-5.893c1.27-2.359,2.108-4.896,2.516-7.629
		C499.084,318.545,499.287,316.033,499.287,313.721"/>
	<path fill="#AFC1C6" d="M521.571,256.018c0-2.303,0.023-4.031,0.078-5.188c0.047-1.156,0.353-1.988,0.917-2.514
		c0.557-0.525,1.474-0.816,2.743-0.863c1.27-0.057,3.127-0.082,5.565-0.082c2.437,0,4.295,0.025,5.563,0.082
		c1.271,0.047,2.188,0.338,2.745,0.863c0.564,0.525,0.862,1.357,0.917,2.514s0.078,2.885,0.078,5.188
		c0,2.305-0.023,4.041-0.078,5.189c-0.055,1.156-0.353,1.996-0.917,2.514c-0.557,0.525-1.474,0.816-2.745,0.863
		c-1.269,0.057-3.127,0.082-5.563,0.082c-2.438,0-4.296-0.025-5.565-0.082c-1.27-0.047-2.187-0.338-2.743-0.863
		c-0.564-0.518-0.87-1.357-0.917-2.514C521.595,260.059,521.571,258.322,521.571,256.018 M540.179,353.506h-18.606v-79.717h18.606
		V353.506z"/>
	<path fill="#AFC1C6" d="M563.287,292.498v35.066c0.306,1.252,0.862,2.408,1.677,3.459c0.706,0.84,1.701,1.623,2.971,2.352
		c1.271,0.734,2.924,1.105,4.961,1.105h11.586v19.025h-18.6c-3.967-0.42-7.525-1.576-10.676-3.459c-2.649-1.576-5.064-3.904-7.243-7
		c-2.194-3.094-3.284-7.359-3.284-12.816v-82.865h18.608v26.424h17.534v18.709H563.287z"/>
	<rect x="666.532" y="247.371" fill="#AFC1C6" width="18.6" height="106.135"/>
	<path fill="#AFC1C6" d="M662.275,347.566h-0.353c-2.567,0-4.54-3.5-4.546-7.082v-26.602c0-6.604-0.658-12.502-1.983-17.691
		c-1.316-5.188-3.433-9.592-6.325-13.205c-2.9-3.619-6.584-6.391-11.06-8.33c-4.476-1.941-9.908-2.91-16.319-2.91
		c-6.812,0.209-12.862,1.777-18.146,4.711c-2.234,1.262-4.445,2.885-6.631,4.873c-2.188,1.996-4.115,4.486-5.792,7.477
		c-1.678,2.98-3.034,6.521-4.045,10.609c-1.02,4.09-1.528,8.857-1.528,14.305c0,5.455,0.486,10.223,1.45,14.313
		s2.233,7.598,3.817,10.531c1.576,2.941,3.354,5.373,5.338,7.313c1.982,1.939,4.036,3.539,6.176,4.801
		c4.876,2.828,10.464,4.291,16.773,4.396c3.151-0.211,6.2-0.889,9.147-2.045c2.54-1.043,5.135-2.723,7.775-5.027
		c1.161-1.012,2.221-2.266,3.206-3.686v2.732c0,5.998,6.053,6.457,6.053,6.457h16.157l-0.029-0.004h0.863
		c1.583,0,2.878-1.336,2.878-2.967C665.153,348.902,663.858,347.566,662.275,347.566 M638.62,321.27
		c-0.407,2.73-1.246,5.27-2.516,7.629c-1.271,2.359-3.05,4.324-5.338,5.893c-2.289,1.574-5.314,2.357-9.077,2.357
		c-3.762,0-6.779-0.783-9.068-2.357c-2.289-1.568-4.045-3.533-5.26-5.893c-1.223-2.359-2.038-4.898-2.445-7.629
		c-0.407-2.725-0.611-5.236-0.611-7.549c0-2.303,0.204-4.816,0.611-7.547c0.407-2.725,1.223-5.262,2.445-7.621
		c1.215-2.361,2.971-4.324,5.26-5.9c2.289-1.568,5.307-2.359,9.068-2.359c3.967,0,7.117,0.688,9.461,2.045
		c2.336,1.365,4.092,3.176,5.26,5.43c1.168,2.256,1.928,4.77,2.288,7.541c0.354,2.779,0.533,5.584,0.533,8.412
		C639.231,316.033,639.028,318.545,638.62,321.27"/>
	<path fill="#AFC1C6" d="M402.952,261.086c-13.446-12.268-36.4-13.236-44.527-12.979v-0.004h-18.496v105.508h18.168
		c0.218,0.004,0.4,0.01,0.635,0.01c8.425,0,31.441-1.588,44.699-14.031c9.91-9.301,14.935-22.318,14.935-38.689
		C418.365,283.811,413.179,270.414,402.952,261.086 M390.743,324.795c-8.662,8.199-26.938,8.945-32.318,8.891v-65.213
		c4.715-0.238,23.144-0.137,31.972,7.92c5.862,5.348,8.713,13.436,8.713,24.723C399.109,311.719,396.372,319.463,390.743,324.795"/>
	<rect x="513.13" y="125.971" fill="#6C8F99" width="18.6" height="102.357"/>
</g>
</svg>
