<?xml version="1.0" encoding="utf-8"?>
<!-- Generator: Adobe Illustrator 16.0.3, SVG Export Plug-In . SVG Version: 6.00 Build 0)  -->
<!DOCTYPE svg PUBLIC "-//W3C//DTD SVG 1.1//EN" "http://www.w3.org/Graphics/SVG/1.1/DTD/svg11.dtd">
<svg version="1.1" id="Capa_1" xmlns="http://www.w3.org/2000/svg" xmlns:xlink="http://www.w3.org/1999/xlink" x="0px" y="0px"
	 width="64px" height="57.875px" viewBox="0 0 64 57.875" enable-background="new 0 0 64 57.875" xml:space="preserve">
<g>
	<g>
		<defs>
			<polygon id="SVGID_1_" points="-5.06,64.338 67.061,64.338 67.061,-6.462 -5.06,-6.462 -5.06,64.338 			"/>
		</defs>
		<clipPath id="SVGID_2_">
			<use xlink:href="#SVGID_1_"  overflow="visible"/>
		</clipPath>
		<g clip-path="url(#SVGID_2_)">
			<defs>
				<polygon id="SVGID_3_" points="-5.06,-6.462 67.061,-6.462 67.061,64.338 -5.06,64.338 -5.06,-6.462 				"/>
			</defs>
			<clipPath id="SVGID_4_">
				<use xlink:href="#SVGID_3_"  overflow="visible"/>
			</clipPath>
		</g>
	</g>
</g>
<g>
	<g>
		<defs>
			<polygon id="SVGID_5_" points="-3.56,62.864 65.561,62.864 65.561,-4.989 -3.56,-4.989 -3.56,62.864 			"/>
		</defs>
		<clipPath id="SVGID_6_">
			<use xlink:href="#SVGID_5_"  overflow="visible"/>
		</clipPath>
		<g clip-path="url(#SVGID_6_)">
			<defs>
				<polygon id="SVGID_7_" points="-3.56,-4.989 65.561,-4.989 65.561,62.864 -3.56,62.864 -3.56,-4.989 				"/>
			</defs>
			<clipPath id="SVGID_8_">
				<use xlink:href="#SVGID_7_"  overflow="visible"/>
			</clipPath>
			<g clip-path="url(#SVGID_8_)">
				<path fill-rule="evenodd" clip-rule="evenodd" fill="#2AA2C8" d="M11.137,46.451c-0.784,0-1.456-0.054-2.116,0.01
					c-3.129,0.297-5.007-2.23-5.046-5.055c-0.038-2.663-0.018-5.327-0.005-7.991c0.011-2.928,1.961-4.844,4.931-4.854
					c3.03-0.008,6.06-0.015,9.091,0.009c0.696,0.005,1.343-0.076,1.931-0.47c2.105-1.41,4.477-2.153,7.015-2.76
					c-3.655-1.816-4.859-5.154-5.667-8.728c-0.116-0.507-0.293-1.132,0.666-1.233c5.541-0.585,10.643-2.26,14.732-6.261
					c3.217,4.128,2.322,13.459-3.654,16.194c2.742,0.607,5.242,1.497,7.486,2.988c0.383,0.256,0.779,0.257,1.193,0.257
					c4.021,0.002,8.043-0.034,12.066,0.025c1.074,0.016,1.299-0.37,1.293-1.354c-0.035-6.32-0.029-12.641-0.008-18.962
					c0.006-1.859,0.822-2.653,2.521-2.598c1.365,0.047,2.096,0.771,2.236,2.103c0.045,0.414,0.037,0.835,0.037,1.253
					c0.002,14.992,0.002,29.983,0,44.977c0,1.034,0.125,2.097-0.885,2.848c-0.779,0.577-1.596,0.778-2.479,0.348
					c-0.836-0.404-1.441-0.988-1.432-2.037c0.018-2.454-0.061-4.911,0.014-7.365c0.035-1.13-0.352-1.438-1.428-1.366
					c-1.404,0.091-2.814,0.022-4.324,0.022c0.287,2.064,0.852,3.988,1.184,5.956c0.846,5.012,0.92,4.999-4.049,4.999
					c-11.703,0-23.404-0.03-35.105,0.037c-1.487,0.008-1.8-0.438-1.761-1.832C9.657,52.53,10.304,49.562,11.137,46.451z
					 M21.491,31.662c0.383-0.036,0.827,0.216,1.119-0.227c0.033-0.047-0.027-0.224-0.083-0.249c-0.35-0.154-0.695-0.187-0.985,0.132
					c-4.02-0.001-8.04-0.01-12.06-0.003c-2.237,0.004-2.869,0.609-2.914,2.878c-0.039,2.035-0.016,4.072-0.006,6.107
					c0.013,2.629,0.705,3.309,3.353,3.309c14.2,0.001,28.402,0,42.603,0c0.365,0,0.732,0.017,1.098-0.007
					c0.969-0.064,1.467-0.465,1.443-1.568c-0.066-3.08-0.057-6.162-0.006-9.242c0.018-1.09-0.404-1.485-1.463-1.487
					c-5.219-0.012-10.436-0.061-15.654-0.098c-0.279,0-0.563,0-0.842,0c-4.58,0-9.158,0-13.737,0
					c-0.007,0.131-0.016,0.263-0.023,0.393c1.344,0.187,2.588,0.609,3.718,1.364c3.133,2.097,3.496,5.588,0.832,8.207
					c-2.842,2.792-8.2,2.815-11.056-0.029c-0.875-0.873-1.551-1.927-1.586-3.283C15.153,34.493,17.638,32.007,21.491,31.662z"/>
				<path fill-rule="evenodd" clip-rule="evenodd" fill="#2AA2C8" d="M36.266,24.634c2.619-3.032,3.662-6.475,3.443-10.316
					c-0.129-2.288-0.934-4.343-2.176-6.242c-0.432-0.661-0.824-0.9-1.521-0.145c-3.898,4.236-8.964,5.812-14.517,6.205
					c-1.263,0.089-1.683,0.751-1.451,2.279c0.421,2.775,1.464,5.289,3.099,7.567c0.2,0.28,0.571,0.482,0.508,0.943
					c-1.648,0.374-3.288,0.768-4.94,1.108c-0.357,0.074-0.804,0.437-0.986-0.421c-1.082-5.065-1.699-10.097-0.032-15.182
					c2.026-6.185,8.719-8.868,14.361-8.046c6.938,1.013,10.49,6.625,11.164,13.067c0.342,3.259,0.096,6.421-0.318,9.629
					c-0.15,1.156-0.633,1.062-1.438,0.849C39.811,25.494,38.148,25.1,36.266,24.634z"/>
				<path fill-rule="evenodd" clip-rule="evenodd" fill="#2AA2C8" d="M21.491,31.662c0.017-0.115,0.034-0.229,0.051-0.343
					c0.29-0.319,0.636-0.287,0.985-0.133c0.056,0.025,0.116,0.202,0.083,0.249C22.318,31.878,21.874,31.626,21.491,31.662z"/>
				<path fill-rule="evenodd" clip-rule="evenodd" fill="#2AA2C8" d="M37.936,31.207c-0.021,0.147-0.043,0.293-0.064,0.439
					c-0.238,0-0.475,0-0.711,0c-0.021-0.146-0.045-0.293-0.066-0.44C37.373,31.207,37.656,31.207,37.936,31.207z"/>
				<path fill-rule="evenodd" clip-rule="evenodd" fill="#2AA2C8" d="M37.16,31.646c0.236,0,0.473,0,0.711,0
					c1.387-0.048,2.676,0.303,3.867,0.994c3.807,2.205,4.041,6.598,0.498,9.194c-2.982,2.189-7.672,1.812-10.301-0.826
					c-2.469-2.48-2.101-6.096,0.833-8.021C34.098,32.117,35.539,31.582,37.16,31.646z"/>
			</g>
		</g>
	</g>
</g>
</svg>
