<?xml version="1.0" encoding="utf-8"?>
<!-- Generator: Adobe Illustrator 16.0.3, SVG Export Plug-In . SVG Version: 6.00 Build 0)  -->
<!DOCTYPE svg PUBLIC "-//W3C//DTD SVG 1.1//EN" "http://www.w3.org/Graphics/SVG/1.1/DTD/svg11.dtd">
<svg version="1.1" id="Capa_1" xmlns="http://www.w3.org/2000/svg" xmlns:xlink="http://www.w3.org/1999/xlink" x="0px" y="0px"
	 width="64px" height="57.875px" viewBox="0 0 64 57.875" enable-background="new 0 0 64 57.875" xml:space="preserve">
<g>
	<g>
		<g>
			<path fill="#2AA2C8" d="M31.922,0.526C38.771,0.523,44.307,6.063,44.3,12.92c-0.005,6.768-5.561,12.315-12.342,12.323
				c-6.81,0.006-12.376-5.544-12.378-12.347C19.58,6.072,25.109,0.53,31.922,0.526z"/>
		</g>
		<path fill="#2AA2C8" d="M39.551,25.968c-2.052,2.689-5.613,6.976-7.421,6.928c-2.045-0.061-5.747-4.089-8.01-6.797
			C15.819,29.179,9.787,36.991,9.432,46.322c4.962,6.489,12.72,10.771,21.544,11.016c9.682,0.27,18.353-4.383,23.593-11.672
			C53.96,36.577,47.902,28.908,39.551,25.968z"/>
		<path fill="#FFFFFF" d="M46.233,36.209h-2.893v-2.89c0-0.573-0.46-1.034-1.031-1.034h-2.064c-0.571,0-1.032,0.463-1.032,1.034
			v2.89h-2.89c-0.571,0-1.034,0.464-1.034,1.032v2.064c0,0.571,0.464,1.033,1.034,1.033h2.89v2.891c0,0.57,0.462,1.034,1.032,1.034
			h2.064c0.571,0,1.031-0.466,1.031-1.034v-2.891h2.893c0.57,0,1.033-0.462,1.033-1.033v-2.064
			C47.267,36.673,46.804,36.209,46.233,36.209z"/>
	</g>
</g>
</svg>
