<?xml version="1.0" encoding="utf-8"?>
<!-- Generator: Adobe Illustrator 16.0.3, SVG Export Plug-In . SVG Version: 6.00 Build 0)  -->
<!DOCTYPE svg PUBLIC "-//W3C//DTD SVG 1.1//EN" "http://www.w3.org/Graphics/SVG/1.1/DTD/svg11.dtd">
<svg version="1.1" id="Capa_1" xmlns="http://www.w3.org/2000/svg" xmlns:xlink="http://www.w3.org/1999/xlink" x="0px" y="0px"
	 width="64px" height="57.875px" viewBox="0 0 64 57.875" enable-background="new 0 0 64 57.875" xml:space="preserve">
<g>
	<g>
		<defs>
			<polygon id="SVGID_1_" points="0.5,60.438 63.5,60.438 63.5,-2.563 0.5,-2.563 0.5,60.438 			"/>
		</defs>
		<clipPath id="SVGID_2_">
			<use xlink:href="#SVGID_1_"  overflow="visible"/>
		</clipPath>
		<g clip-path="url(#SVGID_2_)">
			<defs>
				<polygon id="SVGID_3_" points="0.5,-2.563 63.5,-2.563 63.5,60.438 0.5,60.438 0.5,-2.563 				"/>
			</defs>
			<clipPath id="SVGID_4_">
				<use xlink:href="#SVGID_3_"  overflow="visible"/>
			</clipPath>
		</g>
	</g>
</g>
<g>
	<g>
		<defs>
			<polygon id="SVGID_5_" points="3.379,55.758 60.621,55.758 60.621,2.117 3.379,2.117 3.379,55.758 			"/>
		</defs>
		<clipPath id="SVGID_6_">
			<use xlink:href="#SVGID_5_"  overflow="visible"/>
		</clipPath>
		<g clip-path="url(#SVGID_6_)">
			<defs>
				<polygon id="SVGID_7_" points="3.379,55.758 60.621,55.758 60.621,2.117 3.379,2.117 3.379,55.758 				"/>
			</defs>
			<defs>
				<polygon id="SVGID_8_" points="3.379,2.117 60.621,2.117 60.621,55.758 3.379,55.758 3.379,2.117 				"/>
			</defs>
			<clipPath id="SVGID_9_">
				<use xlink:href="#SVGID_7_"  overflow="visible"/>
			</clipPath>
			<clipPath id="SVGID_10_" clip-path="url(#SVGID_9_)">
				<use xlink:href="#SVGID_8_"  overflow="visible"/>
			</clipPath>
			<g clip-path="url(#SVGID_10_)">
				<defs>
					<polygon id="SVGID_11_" points="3.379,55.758 60.621,55.758 60.621,2.117 3.379,2.117 3.379,55.758 					"/>
				</defs>
				<clipPath id="SVGID_12_">
					<use xlink:href="#SVGID_11_"  overflow="visible"/>
				</clipPath>
				<g clip-path="url(#SVGID_12_)">
					<defs>
						<polygon id="SVGID_13_" points="3.658,55.615 60.495,55.615 60.495,2.396 3.658,2.396 3.658,55.615 						"/>
					</defs>
					<clipPath id="SVGID_14_">
						<use xlink:href="#SVGID_13_"  overflow="visible"/>
					</clipPath>
					<path clip-path="url(#SVGID_14_)" fill="#2AA2C8" d="M47.045,2.475c-4.575,0-9.663,3.782-9.9,9.848
						c-0.078,1.891,0.79,3.86,1.656,5.909c0.198,0.472,0.396,0.906,0.593,1.378c0.946-4.294,4.693-7.721,8.913-7.721
						c0.553,0,1.026,0.473,1.026,1.024c0,0.552-0.474,1.024-1.026,1.024c-3.707,0-7.1,3.743-7.1,7.8
						c0,0.472-0.315,0.827-0.709,0.945c-2.761-1.3-5.365-5.515-5.365-10.715c0-0.552-0.473-1.024-1.024-1.024
						c-0.553,0-1.025,0.473-1.025,1.024c0,5.082,2.208,9.651,5.285,11.857c-2.801,1.024-5.088,3.151-6.312,5.831
						c-1.223-2.68-3.51-4.807-6.311-5.831c3.077-2.167,5.286-6.775,5.286-11.857c0-0.552-0.474-1.024-1.025-1.024
						s-1.026,0.473-1.026,1.024c0,5.2-2.603,9.415-5.364,10.715c-0.395-0.118-0.71-0.473-0.71-0.945c0-4.097-3.391-7.8-7.1-7.8
						c-0.552,0-1.025-0.472-1.025-1.024c0-0.551,0.473-1.024,1.025-1.024c4.182,0,7.928,3.427,8.915,7.721
						c0.197-0.473,0.394-0.946,0.591-1.378c0.907-2.088,1.735-4.019,1.656-5.909c-0.196-6.066-5.285-9.848-9.861-9.848
						c-7.415,0-13.45,10.005-13.45,22.296c0,12.292,6.035,22.296,13.45,22.296c2.723,0,7.811,0,9.822-5.75
						c0.788-2.285-0.198-4.963-1.38-8.076c-0.592-1.535-1.184-3.191-1.618-4.846c-1.144,3.703-4.102,6.814-8.085,6.814
						c-0.553,0-1.027-0.471-1.027-1.023c0-0.551,0.474-1.023,1.027-1.023c3.904,0,6.547-4.137,6.586-8.037
						c4.812,0.276,8.638,4.255,8.638,9.099v20.287c0,0.553,0.473,1.025,1.025,1.025c0.552,0,1.025-0.473,1.025-1.025V34.266
						c0-4.846,3.826-8.825,8.638-9.101c0.04,3.899,2.682,8.036,6.587,8.036c0.553,0,1.025,0.473,1.025,1.023
						c0,0.553-0.473,1.025-1.025,1.025c-3.983,0-6.98-3.152-8.125-6.816c-0.435,1.695-1.025,3.311-1.617,4.846
						c-1.184,3.113-2.209,5.791-1.381,8.076c2.012,5.752,7.1,5.752,9.821,5.752c7.415,0,13.45-10.006,13.45-22.297
						C60.495,12.52,54.46,2.475,47.045,2.475L47.045,2.475z M15.847,25.125c-0.553,0-1.027-0.473-1.027-1.024
						c0-0.552,0.474-1.024,1.027-1.024h6.073c-0.552,0-1.025,0.472-1.025,1.024c0,0.551,0.473,1.024,1.025,1.024H15.847
						L15.847,25.125L15.847,25.125z M48.307,25.125h-6.074c0.554,0,1.026-0.473,1.026-1.024c0-0.552-0.473-1.024-1.026-1.024h6.074
						c0.553,0,1.026,0.472,1.026,1.024C49.333,24.652,48.899,25.125,48.307,25.125L48.307,25.125z"/>
				</g>
			</g>
		</g>
	</g>
</g>
</svg>
