<?xml version="1.0" encoding="utf-8"?>
<!-- Generator: Adobe Illustrator 16.0.3, SVG Export Plug-In . SVG Version: 6.00 Build 0)  -->
<!DOCTYPE svg PUBLIC "-//W3C//DTD SVG 1.1//EN" "http://www.w3.org/Graphics/SVG/1.1/DTD/svg11.dtd">
<svg version="1.1" id="Capa_1" xmlns="http://www.w3.org/2000/svg" xmlns:xlink="http://www.w3.org/1999/xlink" x="0px" y="0px"
	 width="64px" height="57.875px" viewBox="0 0 64 57.875" enable-background="new 0 0 64 57.875" xml:space="preserve">
<g>
	<g>
		<defs>
			<polygon id="SVGID_1_" points="-4.061,64.338 68.061,64.338 68.061,-6.463 -4.061,-6.463 -4.061,64.338 			"/>
		</defs>
		<clipPath id="SVGID_2_">
			<use xlink:href="#SVGID_1_"  overflow="visible"/>
		</clipPath>
		<g clip-path="url(#SVGID_2_)">
			<defs>
				<polygon id="SVGID_3_" points="-4.061,-6.463 68.061,-6.463 68.061,64.338 -4.061,64.338 -4.061,-6.463 				"/>
			</defs>
			<clipPath id="SVGID_4_">
				<use xlink:href="#SVGID_3_"  overflow="visible"/>
			</clipPath>
		</g>
	</g>
</g>
<g>
	<g>
		<path fill-rule="evenodd" clip-rule="evenodd" fill="#2AA2C8" d="M25.983,46.617c0.154-5.144,0.285-6.82,2.012-7.828
			c3.908-2.279,14.422,0.984,20.872,3.844c-0.027,0.003-0.053,0.012-0.08,0.017c-0.592,0.076-0.996,0.369-1.137,0.9
			c-0.155,0.594-0.321,1.247-0.23,1.834c0.333,2.164-0.848,3.779-3.682,3.303c-1.288-0.216-2.556-0.582-3.851-0.741
			c-1.07-0.133-2.168-0.12-3.249-0.06c-0.805,0.045-1.357,0.554-1.541,1.368c-0.346,1.533-0.576,3.084-0.424,4.66
			c0.036,0.37,0.168,0.771,0.378,1.072c0.25,0.36,0.45,0.687,0.251,1.108c-0.212,0.448-0.622,0.511-1.075,0.511
			c-2.975-0.007-5.949-0.005-8.924-0.004C25.8,52.553,25.904,49.273,25.983,46.617z"/>
		<path fill-rule="evenodd" clip-rule="evenodd" fill="#2AA2C8" d="M14.291,8.095c3.711-4.162,8.491-6.258,14.002-6.733
			c4.732-0.409,9.187,0.542,13.256,3.003c4.532,2.74,7.582,6.611,8.646,11.889c0.435,2.161,0.363,4.321-0.095,6.48
			c-0.323,1.527-0.328,3.074-0.116,4.62c0.08,0.587,0.324,1.082,0.747,1.503c0.695,0.688,1.374,1.391,2.053,2.097
			c0.241,0.252,0.47,0.52,0.691,0.79c0.986,1.199,0.862,2.233-0.456,3.396c-0.391,0.346-0.941,0.499-1.38,0.799
			c-0.416,0.286-0.831,0.606-1.15,0.991c-0.351,0.42-0.354,0.931-0.091,1.431c-4.667-2.025-18.164-7.288-24.685-3.484
			c-3.981,2.321-4.099,6.215-4.26,11.605c-0.081,2.685-0.183,6.021-0.716,10.123c-2.016,0-4.033,0.002-6.05,0
			c-0.987,0-1.283-0.377-1.112-1.352c0.877-5.003,1.476-10.027,1.494-15.118c0.011-3.506-0.963-6.75-2.224-9.965
			c-0.926-2.361-1.889-4.74-2.479-7.197C9.016,17.363,10.488,12.358,14.291,8.095z"/>
	</g>
	<path fill-rule="evenodd" clip-rule="evenodd" fill="#2AA2C8" d="M50.243,37.403c0,0,0.675,0.416,0.155,0.956
		c0,0-0.181,0.038-0.787-0.336c-0.609-0.377-0.47-1.021-0.47-1.021L50.243,37.403z"/>
	<path fill-rule="evenodd" clip-rule="evenodd" fill="#2AA2C8" d="M48.135,42.87c0,0,0.882,0.391,0.732-0.237l-0.537-0.235
		L48.135,42.87z"/>
</g>
</svg>
