<?xml version="1.0" encoding="utf-8"?>
<!-- Generator: Adobe Illustrator 16.0.3, SVG Export Plug-In . SVG Version: 6.00 Build 0)  -->
<!DOCTYPE svg PUBLIC "-//W3C//DTD SVG 1.1//EN" "http://www.w3.org/Graphics/SVG/1.1/DTD/svg11.dtd">
<svg version="1.1" id="Capa_1" xmlns="http://www.w3.org/2000/svg" xmlns:xlink="http://www.w3.org/1999/xlink" x="0px" y="0px"
	 width="64px" height="57.875px" viewBox="0 0 64 57.875" enable-background="new 0 0 64 57.875" xml:space="preserve">
<g>
	<g>
		<defs>
			<polygon id="SVGID_1_" points="-4.061,64.338 68.061,64.338 68.061,-6.463 -4.061,-6.463 -4.061,64.338 			"/>
		</defs>
		<clipPath id="SVGID_2_">
			<use xlink:href="#SVGID_1_"  overflow="visible"/>
		</clipPath>
		<g clip-path="url(#SVGID_2_)">
			<defs>
				<polygon id="SVGID_3_" points="-4.061,-6.463 68.061,-6.463 68.061,64.338 -4.061,64.338 -4.061,-6.463 				"/>
			</defs>
			<clipPath id="SVGID_4_">
				<use xlink:href="#SVGID_3_"  overflow="visible"/>
			</clipPath>
		</g>
	</g>
</g>
<g>
	<g>
		<defs>
			<polygon id="SVGID_5_" points="0,54.71 64,54.71 64,3.165 0,3.165 0,54.71 			"/>
		</defs>
		<clipPath id="SVGID_6_">
			<use xlink:href="#SVGID_5_"  overflow="visible"/>
		</clipPath>
		<g clip-path="url(#SVGID_6_)">
			<defs>
				<polygon id="SVGID_7_" points="0,54.71 64,54.71 64,3.165 0,3.165 0,54.71 				"/>
			</defs>
			<defs>
				<polygon id="SVGID_8_" points="0,3.165 64,3.165 64,54.71 0,54.71 0,3.165 				"/>
			</defs>
			<clipPath id="SVGID_9_">
				<use xlink:href="#SVGID_7_"  overflow="visible"/>
			</clipPath>
			<clipPath id="SVGID_10_" clip-path="url(#SVGID_9_)">
				<use xlink:href="#SVGID_8_"  overflow="visible"/>
			</clipPath>
			<g clip-path="url(#SVGID_10_)">
				<defs>
					<polygon id="SVGID_11_" points="0,54.71 64,54.71 64,3.165 0,3.165 0,54.71 					"/>
				</defs>
				<clipPath id="SVGID_12_">
					<use xlink:href="#SVGID_11_"  overflow="visible"/>
				</clipPath>
				<g clip-path="url(#SVGID_12_)">
					<defs>
						<polygon id="SVGID_13_" points="0.361,54.529 63.751,54.529 63.751,3.528 0.361,3.528 0.361,54.529 						"/>
					</defs>
					<clipPath id="SVGID_14_">
						<use xlink:href="#SVGID_13_"  overflow="visible"/>
					</clipPath>
					<path clip-path="url(#SVGID_14_)" fill="#2AA2C8" d="M0.462,35.199c0,4.131,0.461,8.313,2.454,11.73
						c2.658,3.265,6.901,5.561,12.832,6.681c3.63,0.716,7.311,0.868,10.276,0.868c2.864,0,5.112-0.205,6.084-0.255h14.466
						c2.047,0,3.733-1.683,3.733-3.722c0-2.093-1.687-3.726-3.733-3.726H33.18c-0.307,0-0.51-0.255-0.51-0.509
						c0-0.306,0.256-0.511,0.51-0.511H54.6c2.046,0,3.733-1.682,3.733-3.722c0-2.042-1.688-3.724-3.733-3.724H35.328
						c-0.309,0-0.512-0.256-0.512-0.511c0-0.306,0.256-0.511,0.512-0.511h24.077c2.352,0,4.295-1.938,4.295-4.284
						c0-2.346-1.943-4.284-4.295-4.284H35.328c-0.309,0-0.512-0.254-0.512-0.51c0-0.305,0.256-0.51,0.512-0.51h16.563
						c2.353,0,4.294-1.938,4.294-4.284c0-2.346-1.941-4.285-4.294-4.285l-19.836,0.052l0,0h-5.521l0.052-0.052
						c0.101-0.612,0.511-1.224,1.124-1.529c3.271-1.888,5.215-4.131,6.289-5.661c1.124-1.685,1.84-3.826,1.84-5.611
						c0-0.969-0.408-1.734-1.177-2.192c-1.124-0.663-2.761-0.461-3.219-0.256c-0.869,0.458-1.841,1.021-2.556,1.938
						c-0.818,1.02-2.2,2.04-3.936,2.958c-0.716,0.409-4.551,2.857-9.307,5.866c-1.737,1.02-6.899,4.13-9.661,6.682
						c-0.101,0.101-0.204,0.152-0.255,0.253c-0.203,0.154-0.306,0.358-0.511,0.562C2.202,25.511,0.462,30.2,0.462,35.199
						L0.462,35.199z M11.299,19.746l4.756,10.557l-4.039,5.202L6.8,23.317C7.875,22.244,9.563,20.918,11.299,19.746L11.299,19.746z
						 M21.065,23.877l-4.191,5.406l-4.603-10.149c1.84-1.173,3.527-2.243,4.396-2.703L21.065,23.877L21.065,23.877L21.065,23.877z
						 M29.756,21.124l-1.483,12.699l-2.301-4.284l3.322-8.415H29.756L29.756,21.124L29.756,21.124z M32.055,41.065l-2.862-5.408
						l1.737-14.534h1.125V41.065L32.055,41.065L32.055,41.065z M28.426,52.336l-6.237-13.208l3.222-8.162l6.543,12.446l0.101-0.053
						v8.723C31.494,52.132,30.215,52.285,28.426,52.336L28.426,52.336z M18.458,48.562l3.016-7.649l5.417,11.476
						c-2.043,0.051-4.496-0.052-7.001-0.306L18.458,48.562L18.458,48.562L18.458,48.562z M17.23,51.725l0.511-1.325l0.613,1.527
						C17.996,51.827,17.589,51.775,17.23,51.725L17.23,51.725z M5.114,46.367l17.075-22.031l0,0l2.762-3.212l0,0h2.912
						L15.851,51.469C11.046,50.502,7.464,48.816,5.114,46.367L5.114,46.367z"/>
				</g>
			</g>
		</g>
	</g>
</g>
</svg>
